<?xml version="1.0" encoding="utf-8"?>
<!-- Generator: Adobe Illustrator 21.1.0, SVG Export Plug-In . SVG Version: 6.00 Build 0)  -->
<svg version="1.1" id="Layer_1" xmlns="http://www.w3.org/2000/svg" xmlns:xlink="http://www.w3.org/1999/xlink" x="0px" y="0px"
	 viewBox="0 0 241 97" style="enable-background:new 0 0 241 97;" xml:space="preserve">
<style type="text/css">
	.st0{fill:#393158;}
	.st1{fill:#C92929;}
</style>
<g>
	<rect x="39.7" y="0" class="st0" width="160.9" height="3.5"/>
	<rect x="39.7" class="st0" width="3.5" height="28"/>
	<rect x="197.1" class="st0" width="3.5" height="28"/>
	<rect x="39.7" y="93.5" class="st1" width="160.9" height="3.5"/>
	<rect x="197.1" y="69" class="st1" width="3.5" height="28"/>
	<rect x="39.7" y="69" class="st1" width="3.5" height="28"/>
	<path class="st0" d="M154.1,18.4h4.9v-1.2h-6.2v10.7h6.3v-1.2h-5V23h4.5v-1.2h-4.5V18.4z M144.3,27.9h1.3v-4.4h1l2.9,4.4h1.5
		l-3-4.5c0.3,0,2.6-0.5,2.6-3.1c0-1.9-1.5-3.2-3.6-3.2h-2.8V27.9z M147.2,22.3h-1.6v-3.9h1.6c1.4,0,2.2,0.8,2.2,1.9
		C149.4,21.5,148.6,22.3,147.2,22.3 M140.3,27.9h1.3V17.2h-1.3V27.9z M136.3,21.8h-5.4v-4.6h-1.3v10.7h1.3V23h5.4v4.9h1.3V17.2h-1.3
		V21.8z M126.3,25.1c0,1.1-1,1.7-2,1.7c-1.7,0-2.3-1.7-2.3-1.7l-1.1,0.6c0,0,0.9,2.2,3.4,2.2c1.9,0,3.3-1.2,3.3-2.9
		c0-1.7-1-2.4-2.7-3.2c-1.5-0.7-2.4-1.1-2.4-2.2c0-0.8,0.6-1.6,1.8-1.6c1.3,0,2.1,1.1,2.1,1.1l1-0.8c0,0-1-1.6-3-1.6
		c-2.1,0-3.1,1.6-3.1,2.8c0,1.8,1.4,2.5,2.9,3.3C125.4,23.6,126.3,24,126.3,25.1 M113.6,17.2h-1.3v10.7h1.3v-5.1l4.7,5.1h1.7l-5-5.5
		l4.5-5.2H118l-4.3,5V17.2z M103.9,27.9h1.3v-4.4h1l2.9,4.4h1.5l-3-4.5c0.3,0,2.6-0.5,2.6-3.1c0-1.9-1.5-3.2-3.6-3.2h-2.8V27.9z
		 M106.7,22.3h-1.6v-3.9h1.6c1.4,0,2.2,0.8,2.2,1.9C109,21.5,108.2,22.3,106.7,22.3 M96.8,26.8c-2.3,0-3.9-2-3.9-4.3
		c0-2.3,1.6-4.3,3.9-4.3c2.3,0,3.9,2,3.9,4.3C100.7,24.8,99.1,26.8,96.8,26.8 M96.8,17c-3.1,0-5.3,2.4-5.3,5.5
		c0,3.1,2.2,5.5,5.3,5.5c3.1,0,5.3-2.4,5.3-5.5C102.1,19.4,99.8,17,96.8,17 M86.2,27.9h1.3v-4.2l3.6-6.5h-1.4l-2.8,5.3L84,17.2h-1.4
		l3.6,6.5V27.9z"/>
	<path class="st0" d="M145.1,52c0,1.1-1,1.7-2,1.7c-1.7,0-2.3-1.7-2.3-1.7l-1.1,0.6c0,0,0.9,2.2,3.4,2.2c1.9,0,3.3-1.2,3.3-2.9
		c0-1.7-1-2.4-2.7-3.2c-1.5-0.7-2.4-1.1-2.4-2.2c0-0.8,0.6-1.6,1.8-1.6c1.3,0,2.1,1.1,2.1,1.1l1-0.8c0,0-1-1.6-3-1.6
		c-2,0-3.1,1.6-3.1,2.8c0,1.8,1.4,2.5,2.9,3.3C144.2,50.4,145.1,50.9,145.1,52 M136.4,50.6c0,1.7-0.8,3-2.6,3c-1.9,0-2.6-1.3-2.6-3
		V44h-1.3v6.8c0,2.4,1.5,4.1,3.9,4.1c2.4,0,3.9-1.7,3.9-4.1V44h-1.3V50.6z M126.5,52c0,1.1-1,1.7-2,1.7c-1.7,0-2.3-1.7-2.3-1.7
		l-1.1,0.6c0,0,0.9,2.2,3.4,2.2c1.9,0,3.3-1.2,3.3-2.9c0-1.7-1-2.4-2.7-3.2c-1.5-0.7-2.4-1.1-2.4-2.2c0-0.8,0.6-1.6,1.8-1.6
		c1.3,0,2.1,1.1,2.1,1.1l1-0.8c0,0-1-1.6-3-1.6c-2,0-3.1,1.6-3.1,2.8c0,1.8,1.4,2.5,2.9,3.3C125.6,50.4,126.5,50.9,126.5,52
		 M113.1,54.7h1.3v-4.4h1l2.9,4.4h1.5l-3-4.5c0.3,0,2.6-0.5,2.6-3.1c0-1.9-1.5-3.2-3.6-3.2h-2.8V54.7z M116,49.1h-1.6v-3.9h1.6
		c1.4,0,2.2,0.8,2.2,1.9C118.2,48.3,117.4,49.1,116,49.1 M106.1,45.2h4.9V44h-6.2v10.7h6.3v-1.2h-5v-3.7h4.5v-1.2h-4.5V45.2z
		 M103.5,44h-1.3l-3.1,7.8L96,44h-1.4L99,55L103.5,44z"/>
	<path class="st0" d="M158.1,72.2h4.9V71h-6.2v10.7h6.3v-1.2h-5v-3.7h4.5v-1.2h-4.5V72.2z M148.3,81.7h1.3v-4.4h1l2.9,4.4h1.5
		l-3-4.5c0.3,0,2.6-0.5,2.6-3.1c0-1.9-1.5-3.2-3.6-3.2h-2.8V81.7z M151.2,76.1h-1.6v-3.9h1.6c1.4,0,2.2,0.8,2.2,1.9
		C153.4,75.3,152.6,76.1,151.2,76.1 M144.3,81.7h1.3V71h-1.3V81.7z M140.3,75.6h-5.4V71h-1.3v10.7h1.3v-4.9h5.4v4.9h1.3V71h-1.3
		V75.6z M130.3,78.9c0,1.1-1,1.7-2,1.7c-1.7,0-2.3-1.7-2.3-1.7l-1.1,0.6c0,0,0.9,2.2,3.4,2.2c1.9,0,3.3-1.2,3.3-2.9
		c0-1.7-1-2.4-2.7-3.2c-1.5-0.7-2.4-1.1-2.4-2.2c0-0.8,0.6-1.6,1.8-1.6c1.3,0,2.1,1.1,2.1,1.1l1-0.8c0,0-1-1.6-3-1.6
		c-2,0-3.1,1.6-3.1,2.8c0,1.8,1.4,2.5,2.9,3.3C129.4,77.4,130.3,77.8,130.3,78.9 M119.2,72.8l1.8,4.8h-3.7L119.2,72.8z M114.4,81.7
		h1.4l1.1-2.9h4.6l1.1,2.9h1.3L119.8,71h-1.2L114.4,81.7z M113.8,72.4c0,0-1.3-1.6-3.8-1.6c-3.1,0-5.3,2.4-5.3,5.5
		c0,3.1,2.2,5.5,5.3,5.5c2.5,0,4-1.8,4-1.8l-0.9-0.9c0,0-1.1,1.4-3.1,1.4c-2.3,0-3.9-2-3.9-4.3c0-2.3,1.6-4.3,3.9-4.3
		c2,0,3,1.3,3,1.3L113.8,72.4z M94.5,71v10.7h1.3v-8.6l5.7,8.6h1.3V71h-1.3v8.6L95.9,71H94.5z M88.4,72.8l1.8,4.8h-3.7L88.4,72.8z
		 M83.6,81.7h1.4l1.1-2.9h4.6l1.1,2.9h1.3L89,71h-1.2L83.6,81.7z M77.2,81.7h6.1v-1.2h-4.8V71h-1.3V81.7z"/>
	<rect x="168.8" y="47.6" class="st0" width="72.2" height="3.6"/>
	<rect y="47.6" class="st0" width="72.2" height="3.6"/>
</g>
</svg>
