<?xml version="1.0" encoding="utf-8"?>
<!-- Generator: Adobe Illustrator 21.1.0, SVG Export Plug-In . SVG Version: 6.00 Build 0)  -->
<svg version="1.1" id="Layer_1" xmlns="http://www.w3.org/2000/svg" xmlns:xlink="http://www.w3.org/1999/xlink" x="0px" y="0px"
	 viewBox="0 0 35.9 35.2" style="enable-background:new 0 0 35.9 35.2;" xml:space="preserve">
<style type="text/css">
	.st0{fill:#FFFFFF;}
</style>
<polygon class="st0" points="25.4,13.5 25.4,10.8 25.4,10.3 25,10.3 22.1,10.4 22.2,13.6 "/>
<path class="st0" d="M18,20.9c1.9,0,3.4-1.5,3.4-3.3c0-0.7-0.2-1.4-0.6-1.9c-0.6-0.8-1.6-1.4-2.8-1.4c-1.1,0-2.2,0.5-2.8,1.4
	c-0.4,0.5-0.6,1.2-0.6,1.9C14.5,19.4,16.1,20.9,18,20.9"/>
<path class="st0" d="M27.7,15.7v7.7c0,2-1.7,3.6-3.8,3.6H12c-2.1,0-3.8-1.6-3.8-3.6v-7.7v-3.8c0-2,1.7-3.6,3.8-3.6h11.9
	c2.1,0,3.8,1.6,3.8,3.6V15.7z M18.1,0C8.2,0,0.2,7.8,0.2,17.3c0,9.6,8,17.3,17.9,17.3c9.9,0,17.9-7.8,17.9-17.3
	C35.9,7.8,27.9,0,18.1,0"/>
<path class="st0" d="M23.3,17.6c0,2.8-2.4,5.2-5.3,5.2c-2.9,0-5.3-2.3-5.3-5.2c0-0.7,0.1-1.3,0.4-1.9h-2.9v7.7c0,1,0.8,1.8,1.9,1.8
	h11.9c1,0,1.9-0.8,1.9-1.8v-7.7h-2.9C23.1,16.3,23.3,16.9,23.3,17.6"/>
</svg>
