<?xml version="1.0" encoding="utf-8"?>
<!-- Generator: Adobe Illustrator 21.1.0, SVG Export Plug-In . SVG Version: 6.00 Build 0)  -->
<svg version="1.1" id="Layer_1" xmlns="http://www.w3.org/2000/svg" xmlns:xlink="http://www.w3.org/1999/xlink" x="0px" y="0px"
	 viewBox="0 0 35.8 34.7" style="enable-background:new 0 0 35.8 34.7;" xml:space="preserve">
<style type="text/css">
	.st0{fill:#FFFFFF;}
</style>
<path class="st0" d="M17.9,0C8,0,0,7.8,0,17.3c0,9.6,8,17.3,17.9,17.3c9.9,0,17.9-7.8,17.9-17.3C35.8,7.8,27.8,0,17.9,0z M26.9,13.8
	c0,0.2,0,0.4,0,0.6c0,5.8-4.5,12.4-12.8,12.4c-2.5,0-4.9-0.7-6.9-2c0.4,0,0.7,0.1,1.1,0.1c2.1,0,4.1-0.7,5.6-1.9c-2,0-3.6-1.3-4.2-3
	c0.3,0.1,0.6,0.1,0.8,0.1c0.4,0,0.8-0.1,1.2-0.2c-2.1-0.4-3.6-2.2-3.6-4.3c0,0,0,0,0-0.1c0.6,0.3,1.3,0.5,2,0.5
	c-1.2-0.8-2-2.1-2-3.6c0-0.8,0.2-1.6,0.6-2.2c2.2,2.6,5.5,4.4,9.3,4.6c-0.1-0.3-0.1-0.7-0.1-1c0-2.4,2-4.4,4.5-4.4
	c1.3,0,2.5,0.5,3.3,1.4c1-0.2,2-0.6,2.9-1.1c-0.3,1-1.1,1.9-2,2.4c0.9-0.1,1.8-0.3,2.6-0.7C28.6,12.5,27.8,13.2,26.9,13.8z"/>
</svg>
