<?xml version="1.0" encoding="utf-8"?>
<!-- Generator: Adobe Illustrator 21.1.0, SVG Export Plug-In . SVG Version: 6.00 Build 0)  -->
<svg version="1.1" id="Layer_1" xmlns="http://www.w3.org/2000/svg" xmlns:xlink="http://www.w3.org/1999/xlink" x="0px" y="0px"
	 viewBox="0 0 516.2 224.4" style="enable-background:new 0 0 516.2 224.4;" xml:space="preserve">
<style type="text/css">
	.st0{fill:#FFFFFF;}
</style>
<g>
	<g>
		<path class="st0" d="M172.9,14.3c-1.6-0.9-2.8-1.9-3.5-3s-1.2-2.6-1.2-4.2c0-1.6,0.4-3.1,1.2-4.2s2-2.2,3.5-3l1.1,1.7
			c-0.6,0.4-1.1,0.8-1.5,1.2c-0.4,0.4-0.8,0.8-1,1.3s-0.5,0.9-0.6,1.4c-0.1,0.5-0.2,1.1-0.2,1.7s0.1,1.2,0.2,1.7
			c0.1,0.5,0.3,1,0.6,1.4c0.3,0.4,0.6,0.9,1,1.3c0.4,0.4,0.9,0.8,1.5,1.2L172.9,14.3z"/>
		<path class="st0" d="M185.1-0.1h2.4l5.1,12h-2.7l-1.1-2.7h-5l-1.1,2.7H180L185.1-0.1z M187.8,6.9l-1.6-3.9l-1.6,3.9H187.8z"/>
		<path class="st0" d="M199.3,0h2.6v4.7h4.8V0h2.6v11.9h-2.6V7.1H202v4.8h-2.6V0z"/>
		<path class="st0" d="M216.5,5.4h5.2v2.5h-5.2V5.4z"/>
		<path class="st0" d="M228.8,0h5.4c1.5,0,2.7,0.4,3.5,1.2c0.7,0.7,1,1.6,1,2.7v0c0,1-0.2,1.7-0.7,2.4c-0.5,0.6-1.1,1.1-1.8,1.3
			l2.9,4.2H236l-2.5-3.8h0h-2v3.8h-2.6V0z M234,5.8c0.6,0,1.1-0.2,1.5-0.5c0.3-0.3,0.5-0.7,0.5-1.2v0c0-0.6-0.2-1-0.5-1.3
			c-0.4-0.3-0.9-0.4-1.5-0.4h-2.6v3.4H234z"/>
		<path class="st0" d="M246,0h9v2.3h-6.4v2.4h5.6v2.3h-5.6v2.5h6.5v2.3h-9V0z"/>
		<path class="st0" d="M262.3,0h2.6v4.7h4.8V0h2.6v11.9h-2.6V7.1h-4.8v4.8h-2.6V0z"/>
		<path class="st0" d="M279.4,5.4h5.2v2.5h-5.2V5.4z"/>
		<path class="st0" d="M294.5,2.4h-3.6V0h9.9v2.4h-3.6v9.5h-2.6V2.4z"/>
		<path class="st0" d="M311.7-0.1h2.4l5.1,12h-2.7l-1.1-2.7h-5l-1.1,2.7h-2.7L311.7-0.1z M314.5,6.9l-1.6-3.9l-1.6,3.9H314.5z"/>
		<path class="st0" d="M329.3,7.2L324.8,0h3.1l2.8,4.8l2.9-4.8h3l-4.6,7.2v4.7h-2.6V7.2z"/>
		<path class="st0" d="M342.2,12.6c0.6-0.4,1.1-0.8,1.5-1.2c0.4-0.4,0.8-0.8,1-1.3c0.3-0.4,0.5-0.9,0.6-1.4c0.1-0.5,0.2-1.1,0.2-1.7
			s-0.1-1.2-0.2-1.7c-0.1-0.5-0.3-1-0.6-1.4c-0.3-0.4-0.6-0.9-1-1.3c-0.4-0.4-0.9-0.8-1.5-1.2l1.1-1.7c1.6,0.8,2.8,1.9,3.5,3
			s1.2,2.6,1.2,4.2c0,1.6-0.4,3.1-1.2,4.2s-2,2.2-3.5,3L342.2,12.6z"/>
	</g>
	<g>
		<path class="st0" d="M105.8,67.5h-0.8v-5.9h0l-1.3,1.1l-0.5-0.6l1.9-1.5h0.7V67.5z"/>
		<path class="st0" d="M109.3,66.3c0.2,0,0.3,0.1,0.4,0.2c0.1,0.1,0.2,0.3,0.2,0.4s-0.1,0.3-0.2,0.4c-0.1,0.1-0.3,0.2-0.4,0.2
			c-0.2,0-0.3-0.1-0.4-0.2c-0.1-0.1-0.2-0.3-0.2-0.4s0.1-0.3,0.2-0.4C109,66.4,109.2,66.3,109.3,66.3z"/>
	</g>
	<g>
		<path class="st0" d="M128.7,62.4h-4v10.7h-1.4V62.4h-4v-1.3h9.4V62.4z"/>
		<path class="st0" d="M130.6,60.3h1.3v6h0c0.1-0.2,0.2-0.3,0.4-0.5c0.2-0.2,0.3-0.3,0.6-0.4s0.5-0.2,0.7-0.3
			c0.3-0.1,0.6-0.1,0.9-0.1c0.5,0,1,0.1,1.4,0.2c0.4,0.2,0.7,0.4,0.9,0.7c0.2,0.3,0.4,0.6,0.6,1c0.1,0.4,0.2,0.8,0.2,1.3v4.9h-1.3
			v-4.8c0-0.7-0.1-1.2-0.4-1.6c-0.3-0.4-0.8-0.6-1.4-0.6c-0.4,0-0.8,0.1-1.1,0.2c-0.3,0.1-0.6,0.4-0.8,0.6s-0.3,0.6-0.4,1
			c-0.1,0.4-0.1,0.8-0.1,1.2v3.9h-1.3V60.3z"/>
		<path class="st0" d="M147.5,71.7c-0.5,0.6-1,1-1.6,1.3c-0.6,0.2-1.2,0.4-2,0.4c-0.6,0-1.2-0.1-1.7-0.3c-0.5-0.2-0.9-0.5-1.3-0.9
			s-0.6-0.8-0.8-1.3c-0.2-0.5-0.3-1.1-0.3-1.6c0-0.6,0.1-1.2,0.3-1.7s0.5-1,0.9-1.3c0.4-0.4,0.8-0.7,1.3-0.9c0.5-0.2,1-0.3,1.6-0.3
			c0.6,0,1.1,0.1,1.5,0.3c0.5,0.2,0.9,0.5,1.2,0.8s0.6,0.8,0.8,1.3s0.3,1.1,0.3,1.8v0.4h-6.4c0,0.3,0.1,0.7,0.2,1
			c0.1,0.3,0.3,0.6,0.6,0.8s0.5,0.4,0.8,0.6c0.3,0.1,0.6,0.2,1,0.2c0.6,0,1.1-0.1,1.5-0.3c0.4-0.2,0.8-0.5,1.1-0.9L147.5,71.7z
			 M146.4,68.4c0-0.7-0.2-1.2-0.7-1.6c-0.4-0.4-1-0.6-1.7-0.6c-0.7,0-1.3,0.2-1.8,0.6c-0.5,0.4-0.7,1-0.8,1.6H146.4z"/>
		<path class="st0" d="M155.4,65.2h1.3v1.2h0c0.4-0.4,0.8-0.8,1.3-1c0.5-0.2,1-0.4,1.6-0.4c0.6,0,1.2,0.1,1.7,0.3
			c0.5,0.2,1,0.5,1.3,0.9c0.4,0.4,0.6,0.8,0.9,1.3c0.2,0.5,0.3,1.1,0.3,1.7c0,0.6-0.1,1.2-0.3,1.7c-0.2,0.5-0.5,1-0.8,1.3
			s-0.8,0.7-1.3,0.9c-0.5,0.2-1,0.3-1.6,0.3c-0.7,0-1.3-0.2-1.9-0.5c-0.5-0.3-0.9-0.7-1.2-1.1h0V77h-1.3V65.2z M156.7,69.1
			c0,0.4,0.1,0.8,0.2,1.2s0.3,0.7,0.6,0.9c0.2,0.3,0.5,0.5,0.9,0.6s0.7,0.2,1.2,0.2s0.8-0.1,1.2-0.2s0.6-0.4,0.9-0.6
			c0.2-0.3,0.4-0.6,0.6-0.9s0.2-0.7,0.2-1.2c0-0.4-0.1-0.8-0.2-1.2s-0.3-0.7-0.6-0.9c-0.2-0.3-0.5-0.5-0.9-0.6s-0.7-0.2-1.2-0.2
			s-0.8,0.1-1.2,0.2s-0.6,0.4-0.9,0.6c-0.2,0.3-0.4,0.6-0.6,0.9S156.7,68.7,156.7,69.1z"/>
		<path class="st0" d="M173.2,71.2c0,0.4,0,0.7,0,1c0,0.3,0,0.6,0,0.9H172c0-0.2,0-0.4,0-0.6s0-0.4,0-0.7h0
			c-0.1,0.2-0.2,0.4-0.4,0.6c-0.2,0.2-0.4,0.3-0.6,0.5c-0.2,0.1-0.5,0.3-0.8,0.3c-0.3,0.1-0.6,0.1-0.9,0.1c-0.5,0-1-0.1-1.4-0.2
			c-0.4-0.2-0.7-0.4-0.9-0.7c-0.2-0.3-0.4-0.6-0.6-1c-0.1-0.4-0.2-0.8-0.2-1.3v-4.9h1.3v4.8c0,0.7,0.1,1.2,0.4,1.6
			c0.3,0.4,0.8,0.6,1.4,0.6c0.4,0,0.8-0.1,1.1-0.2c0.3-0.1,0.6-0.4,0.8-0.6c0.2-0.3,0.3-0.6,0.4-1c0.1-0.4,0.1-0.8,0.1-1.2v-3.9h1.3
			V71.2z"/>
		<path class="st0" d="M176.1,67c0-0.4,0-0.7,0-1c0-0.3,0-0.6,0-0.9h1.3c0,0.2,0,0.4,0,0.6s0,0.4,0,0.7h0c0.1-0.2,0.2-0.4,0.4-0.6
			c0.2-0.2,0.4-0.3,0.6-0.5s0.5-0.3,0.8-0.3c0.3-0.1,0.6-0.1,0.9-0.1c0.1,0,0.2,0,0.3,0c0.1,0,0.2,0,0.3,0.1l-0.1,1.3
			c-0.2-0.1-0.5-0.1-0.7-0.1c-0.8,0-1.4,0.3-1.8,0.8c-0.4,0.5-0.6,1.2-0.6,2.2v3.9h-1.3V67z"/>
		<path class="st0" d="M182.7,71c0.3,0.3,0.5,0.6,0.9,0.8c0.3,0.2,0.7,0.3,1.2,0.3c0.2,0,0.4,0,0.6-0.1c0.2,0,0.4-0.1,0.6-0.2
			c0.2-0.1,0.3-0.2,0.4-0.4c0.1-0.2,0.2-0.3,0.2-0.6c0-0.2,0-0.4-0.1-0.5c-0.1-0.1-0.2-0.3-0.4-0.3c-0.2-0.1-0.3-0.2-0.5-0.2
			c-0.2-0.1-0.4-0.1-0.6-0.2c-0.4-0.1-0.7-0.2-1.1-0.3c-0.3-0.1-0.6-0.2-0.9-0.4c-0.3-0.2-0.5-0.4-0.6-0.6c-0.2-0.3-0.2-0.6-0.2-1
			c0-0.4,0.1-0.7,0.3-1c0.2-0.3,0.4-0.5,0.7-0.7s0.6-0.3,1-0.4c0.4-0.1,0.7-0.2,1.1-0.2c0.6,0,1.1,0.1,1.6,0.3
			c0.5,0.2,0.9,0.6,1.1,1.1l-1.1,0.7c-0.2-0.3-0.4-0.5-0.7-0.7c-0.3-0.2-0.6-0.3-1-0.3c-0.2,0-0.4,0-0.6,0.1c-0.2,0-0.4,0.1-0.5,0.2
			c-0.1,0.1-0.3,0.2-0.4,0.3c-0.1,0.1-0.1,0.3-0.1,0.5c0,0.2,0.1,0.3,0.2,0.4c0.1,0.1,0.3,0.2,0.4,0.3c0.2,0.1,0.4,0.2,0.6,0.2
			c0.2,0.1,0.5,0.1,0.8,0.2c0.4,0.1,0.7,0.2,1,0.3c0.3,0.1,0.6,0.3,0.8,0.4c0.2,0.2,0.4,0.4,0.6,0.7c0.1,0.3,0.2,0.6,0.2,1
			c0,0.5-0.1,0.8-0.3,1.2c-0.2,0.3-0.4,0.6-0.7,0.8c-0.3,0.2-0.6,0.3-1,0.4c-0.4,0.1-0.8,0.1-1.2,0.1c-0.7,0-1.3-0.1-1.8-0.3
			c-0.5-0.2-0.9-0.6-1.3-1.2L182.7,71z"/>
		<path class="st0" d="M197.1,71.2c0,0.4,0,0.7,0,1c0,0.3,0,0.6,0,0.9h-1.3c0-0.2,0-0.4,0-0.6s0-0.4,0-0.7h0
			c-0.1,0.2-0.2,0.4-0.4,0.6c-0.2,0.2-0.4,0.3-0.6,0.5c-0.2,0.1-0.5,0.3-0.8,0.3c-0.3,0.1-0.6,0.1-0.9,0.1c-0.5,0-1-0.1-1.4-0.2
			c-0.4-0.2-0.7-0.4-0.9-0.7c-0.2-0.3-0.4-0.6-0.6-1c-0.1-0.4-0.2-0.8-0.2-1.3v-4.9h1.3v4.8c0,0.7,0.1,1.2,0.4,1.6
			c0.3,0.4,0.8,0.6,1.4,0.6c0.4,0,0.8-0.1,1.1-0.2c0.3-0.1,0.6-0.4,0.8-0.6c0.2-0.3,0.3-0.6,0.4-1c0.1-0.4,0.1-0.8,0.1-1.2v-3.9h1.3
			V71.2z"/>
		<path class="st0" d="M199.9,62c0-0.3,0.1-0.5,0.3-0.7c0.2-0.2,0.4-0.3,0.7-0.3s0.5,0.1,0.7,0.3c0.2,0.2,0.3,0.4,0.3,0.7
			c0,0.3-0.1,0.5-0.3,0.7c-0.2,0.2-0.4,0.3-0.7,0.3c-0.3,0-0.5-0.1-0.7-0.3C200,62.6,199.9,62.3,199.9,62z M200.2,65.2h1.3v8h-1.3
			V65.2z"/>
		<path class="st0" d="M208.9,66.3h-2.3v4c0,0.3,0,0.5,0,0.7c0,0.2,0.1,0.4,0.1,0.6c0.1,0.2,0.2,0.3,0.4,0.4
			c0.2,0.1,0.4,0.1,0.7,0.1c0.2,0,0.4,0,0.6-0.1c0.2,0,0.4-0.1,0.6-0.2L209,73c-0.2,0.1-0.5,0.2-0.8,0.2c-0.3,0-0.5,0.1-0.8,0.1
			c-0.5,0-0.9-0.1-1.1-0.2c-0.3-0.1-0.5-0.3-0.7-0.5c-0.2-0.2-0.3-0.5-0.3-0.8c-0.1-0.3-0.1-0.7-0.1-1.1v-4.4h-1.7v-1.1h1.7v-2.3
			h1.3v2.3h2.3V66.3z"/>
		<path class="st0" d="M215.7,69.1c0-0.6,0.1-1.2,0.3-1.7c0.2-0.5,0.5-0.9,0.9-1.3c0.4-0.4,0.8-0.7,1.3-0.9c0.5-0.2,1.1-0.3,1.7-0.3
			c0.6,0,1.2,0.1,1.7,0.3c0.5,0.2,1,0.5,1.3,0.9c0.4,0.4,0.7,0.8,0.9,1.3c0.2,0.5,0.3,1.1,0.3,1.7c0,0.6-0.1,1.2-0.3,1.7
			c-0.2,0.5-0.5,0.9-0.9,1.3s-0.8,0.7-1.3,0.9c-0.5,0.2-1.1,0.3-1.7,0.3c-0.6,0-1.2-0.1-1.7-0.3c-0.5-0.2-1-0.5-1.3-0.9
			s-0.7-0.8-0.9-1.3C215.8,70.3,215.7,69.8,215.7,69.1z M217.1,69.1c0,0.4,0.1,0.8,0.2,1.2s0.3,0.7,0.6,0.9c0.2,0.3,0.5,0.5,0.9,0.6
			s0.7,0.2,1.2,0.2s0.8-0.1,1.2-0.2s0.6-0.4,0.9-0.6c0.2-0.3,0.4-0.6,0.6-0.9s0.2-0.7,0.2-1.2c0-0.4-0.1-0.8-0.2-1.2
			s-0.3-0.7-0.6-0.9c-0.2-0.3-0.5-0.5-0.9-0.6s-0.7-0.2-1.2-0.2s-0.8,0.1-1.2,0.2s-0.6,0.4-0.9,0.6c-0.2,0.3-0.4,0.6-0.6,0.9
			S217.1,68.7,217.1,69.1z"/>
		<path class="st0" d="M227.3,66.3h-1.7v-1.1h1.7v-1.8c0-0.5,0-0.9,0.1-1.3c0.1-0.4,0.2-0.8,0.5-1c0.2-0.3,0.5-0.5,0.9-0.7
			c0.4-0.2,0.8-0.2,1.3-0.2c0.2,0,0.4,0,0.5,0.1c0.2,0,0.4,0.1,0.5,0.2l-0.2,1.2c-0.3-0.1-0.6-0.2-0.9-0.2c-0.3,0-0.6,0.1-0.8,0.2
			c-0.2,0.1-0.3,0.3-0.4,0.5c-0.1,0.2-0.2,0.5-0.2,0.8c0,0.3,0,0.6,0,1v1.5h1.9v1.1h-1.9v6.8h-1.3V66.3z"/>
		<path class="st0" d="M244.7,71.7c-0.5,0.6-1,1-1.6,1.3c-0.6,0.2-1.2,0.4-2,0.4c-0.6,0-1.2-0.1-1.7-0.3c-0.5-0.2-0.9-0.5-1.3-0.9
			s-0.6-0.8-0.8-1.3c-0.2-0.5-0.3-1.1-0.3-1.6c0-0.6,0.1-1.2,0.3-1.7s0.5-1,0.9-1.3c0.4-0.4,0.8-0.7,1.3-0.9c0.5-0.2,1-0.3,1.6-0.3
			c0.6,0,1.1,0.1,1.5,0.3c0.5,0.2,0.9,0.5,1.2,0.8s0.6,0.8,0.8,1.3s0.3,1.1,0.3,1.8v0.4h-6.4c0,0.3,0.1,0.7,0.2,1
			c0.1,0.3,0.3,0.6,0.6,0.8s0.5,0.4,0.8,0.6c0.3,0.1,0.6,0.2,1,0.2c0.6,0,1.1-0.1,1.5-0.3c0.4-0.2,0.8-0.5,1.1-0.9L244.7,71.7z
			 M243.5,68.4c0-0.7-0.2-1.2-0.7-1.6c-0.4-0.4-1-0.6-1.7-0.6c-0.7,0-1.3,0.2-1.8,0.6c-0.5,0.4-0.7,1-0.8,1.6H243.5z"/>
		<path class="st0" d="M249.5,68.8l-2.9-3.7h1.7l2.1,2.9l2-2.9h1.6l-2.7,3.7l3.3,4.3h-1.8l-2.5-3.4l-2.5,3.4h-1.6L249.5,68.8z"/>
		<path class="st0" d="M262,67.1c-0.3-0.3-0.6-0.6-0.9-0.7c-0.3-0.2-0.7-0.2-1.1-0.2c-0.4,0-0.8,0.1-1.2,0.2s-0.6,0.4-0.8,0.6
			s-0.4,0.6-0.5,0.9s-0.2,0.7-0.2,1.1s0.1,0.8,0.2,1.1s0.3,0.7,0.5,0.9c0.2,0.3,0.5,0.5,0.8,0.6c0.3,0.2,0.7,0.2,1.1,0.2
			c0.9,0,1.5-0.3,2-1l1,0.9c-0.4,0.4-0.8,0.8-1.4,1c-0.5,0.2-1.1,0.3-1.6,0.3c-0.6,0-1.2-0.1-1.7-0.3c-0.5-0.2-0.9-0.5-1.3-0.9
			c-0.4-0.4-0.6-0.8-0.8-1.3c-0.2-0.5-0.3-1.1-0.3-1.7c0-0.6,0.1-1.2,0.3-1.7c0.2-0.5,0.5-1,0.8-1.3s0.8-0.7,1.3-0.9
			c0.5-0.2,1.1-0.3,1.7-0.3c0.6,0,1.1,0.1,1.7,0.3c0.5,0.2,1,0.5,1.4,1L262,67.1z"/>
		<path class="st0" d="M272.1,71.7c-0.5,0.6-1,1-1.6,1.3s-1.2,0.4-2,0.4c-0.6,0-1.2-0.1-1.7-0.3c-0.5-0.2-0.9-0.5-1.3-0.9
			c-0.3-0.4-0.6-0.8-0.8-1.3c-0.2-0.5-0.3-1.1-0.3-1.6c0-0.6,0.1-1.2,0.3-1.7c0.2-0.5,0.5-1,0.8-1.3c0.4-0.4,0.8-0.7,1.3-0.9
			c0.5-0.2,1-0.3,1.6-0.3c0.6,0,1.1,0.1,1.5,0.3s0.9,0.5,1.2,0.8s0.6,0.8,0.8,1.3s0.3,1.1,0.3,1.8v0.4h-6.4c0,0.3,0.1,0.7,0.2,1
			c0.1,0.3,0.3,0.6,0.6,0.8c0.2,0.2,0.5,0.4,0.8,0.6c0.3,0.1,0.6,0.2,1,0.2c0.6,0,1.1-0.1,1.5-0.3c0.4-0.2,0.8-0.5,1.1-0.9
			L272.1,71.7z M270.9,68.4c0-0.7-0.2-1.2-0.7-1.6c-0.4-0.4-1-0.6-1.7-0.6c-0.7,0-1.3,0.2-1.8,0.6c-0.5,0.4-0.7,1-0.8,1.6H270.9z"/>
		<path class="st0" d="M274.9,60.3h1.3v12.9h-1.3V60.3z"/>
		<path class="st0" d="M279.5,60.3h1.3v12.9h-1.3V60.3z"/>
		<path class="st0" d="M290.9,71.7c-0.5,0.6-1,1-1.6,1.3s-1.2,0.4-2,0.4c-0.6,0-1.2-0.1-1.7-0.3c-0.5-0.2-0.9-0.5-1.3-0.9
			c-0.3-0.4-0.6-0.8-0.8-1.3c-0.2-0.5-0.3-1.1-0.3-1.6c0-0.6,0.1-1.2,0.3-1.7c0.2-0.5,0.5-1,0.8-1.3c0.4-0.4,0.8-0.7,1.3-0.9
			c0.5-0.2,1-0.3,1.6-0.3c0.6,0,1.1,0.1,1.5,0.3s0.9,0.5,1.2,0.8s0.6,0.8,0.8,1.3s0.3,1.1,0.3,1.8v0.4h-6.4c0,0.3,0.1,0.7,0.2,1
			c0.1,0.3,0.3,0.6,0.6,0.8c0.2,0.2,0.5,0.4,0.8,0.6c0.3,0.1,0.6,0.2,1,0.2c0.6,0,1.1-0.1,1.5-0.3c0.4-0.2,0.8-0.5,1.1-0.9
			L290.9,71.7z M289.8,68.4c0-0.7-0.2-1.2-0.7-1.6c-0.4-0.4-1-0.6-1.7-0.6c-0.7,0-1.3,0.2-1.8,0.6c-0.5,0.4-0.7,1-0.8,1.6H289.8z"/>
		<path class="st0" d="M293.7,67c0-0.4,0-0.7,0-1s0-0.6,0-0.9h1.3c0,0.2,0,0.4,0,0.6s0,0.4,0,0.7h0c0.1-0.2,0.2-0.4,0.4-0.6
			c0.2-0.2,0.4-0.3,0.6-0.5c0.2-0.1,0.5-0.3,0.8-0.3c0.3-0.1,0.6-0.1,0.9-0.1c0.5,0,1,0.1,1.4,0.2s0.7,0.4,0.9,0.7s0.4,0.6,0.6,1
			s0.2,0.8,0.2,1.3v4.9h-1.3v-4.8c0-0.7-0.1-1.2-0.4-1.6s-0.8-0.6-1.4-0.6c-0.4,0-0.8,0.1-1.1,0.2s-0.6,0.4-0.8,0.6
			c-0.2,0.3-0.3,0.6-0.4,1c-0.1,0.4-0.1,0.8-0.1,1.2v3.9h-1.3V67z"/>
		<path class="st0" d="M309.2,67.1c-0.3-0.3-0.6-0.6-0.9-0.7c-0.3-0.2-0.7-0.2-1.1-0.2c-0.4,0-0.8,0.1-1.2,0.2s-0.6,0.4-0.8,0.6
			s-0.4,0.6-0.5,0.9c-0.1,0.4-0.2,0.7-0.2,1.1s0.1,0.8,0.2,1.1c0.1,0.4,0.3,0.7,0.5,0.9c0.2,0.3,0.5,0.5,0.8,0.6
			c0.3,0.2,0.7,0.2,1.1,0.2c0.9,0,1.5-0.3,2-1l1,0.9c-0.4,0.4-0.8,0.8-1.4,1c-0.5,0.2-1.1,0.3-1.6,0.3c-0.6,0-1.2-0.1-1.7-0.3
			c-0.5-0.2-0.9-0.5-1.3-0.9c-0.4-0.4-0.6-0.8-0.8-1.3c-0.2-0.5-0.3-1.1-0.3-1.7c0-0.6,0.1-1.2,0.3-1.7c0.2-0.5,0.5-1,0.8-1.3
			c0.4-0.4,0.8-0.7,1.3-0.9c0.5-0.2,1.1-0.3,1.7-0.3c0.6,0,1.1,0.1,1.7,0.3c0.5,0.2,1,0.5,1.4,1L309.2,67.1z"/>
		<path class="st0" d="M319.3,71.7c-0.5,0.6-1,1-1.6,1.3s-1.2,0.4-2,0.4c-0.6,0-1.2-0.1-1.7-0.3c-0.5-0.2-0.9-0.5-1.3-0.9
			c-0.3-0.4-0.6-0.8-0.8-1.3c-0.2-0.5-0.3-1.1-0.3-1.6c0-0.6,0.1-1.2,0.3-1.7c0.2-0.5,0.5-1,0.8-1.3c0.4-0.4,0.8-0.7,1.3-0.9
			c0.5-0.2,1-0.3,1.6-0.3c0.6,0,1.1,0.1,1.5,0.3s0.9,0.5,1.2,0.8s0.6,0.8,0.8,1.3s0.3,1.1,0.3,1.8v0.4h-6.4c0,0.3,0.1,0.7,0.2,1
			c0.1,0.3,0.3,0.6,0.6,0.8c0.2,0.2,0.5,0.4,0.8,0.6c0.3,0.1,0.6,0.2,1,0.2c0.6,0,1.1-0.1,1.5-0.3c0.4-0.2,0.8-0.5,1.1-0.9
			L319.3,71.7z M318.1,68.4c0-0.7-0.2-1.2-0.7-1.6c-0.4-0.4-1-0.6-1.7-0.6c-0.7,0-1.3,0.2-1.8,0.6c-0.5,0.4-0.7,1-0.8,1.6H318.1z"/>
		<path class="st0" d="M326.8,69.1c0-0.6,0.1-1.2,0.3-1.7c0.2-0.5,0.5-0.9,0.9-1.3c0.4-0.4,0.8-0.7,1.3-0.9s1.1-0.3,1.7-0.3
			s1.2,0.1,1.7,0.3s1,0.5,1.3,0.9c0.4,0.4,0.7,0.8,0.9,1.3c0.2,0.5,0.3,1.1,0.3,1.7c0,0.6-0.1,1.2-0.3,1.7c-0.2,0.5-0.5,0.9-0.9,1.3
			s-0.8,0.7-1.3,0.9s-1.1,0.3-1.7,0.3s-1.2-0.1-1.7-0.3s-1-0.5-1.3-0.9s-0.7-0.8-0.9-1.3C326.9,70.3,326.8,69.8,326.8,69.1z
			 M328.2,69.1c0,0.4,0.1,0.8,0.2,1.2c0.1,0.4,0.3,0.7,0.6,0.9c0.2,0.3,0.5,0.5,0.9,0.6s0.7,0.2,1.2,0.2s0.8-0.1,1.2-0.2
			c0.3-0.2,0.6-0.4,0.9-0.6c0.2-0.3,0.4-0.6,0.6-0.9c0.1-0.4,0.2-0.7,0.2-1.2c0-0.4-0.1-0.8-0.2-1.2c-0.1-0.4-0.3-0.7-0.6-0.9
			c-0.2-0.3-0.5-0.5-0.9-0.6c-0.3-0.2-0.7-0.2-1.2-0.2s-0.8,0.1-1.2,0.2s-0.6,0.4-0.9,0.6c-0.2,0.3-0.4,0.6-0.6,0.9
			C328.2,68.3,328.2,68.7,328.2,69.1z"/>
		<path class="st0" d="M338.4,66.3h-1.7v-1.1h1.7v-1.8c0-0.5,0-0.9,0.1-1.3c0.1-0.4,0.2-0.8,0.5-1c0.2-0.3,0.5-0.5,0.9-0.7
			c0.4-0.2,0.8-0.2,1.3-0.2c0.2,0,0.4,0,0.5,0.1c0.2,0,0.4,0.1,0.5,0.2l-0.2,1.2c-0.3-0.1-0.6-0.2-0.9-0.2c-0.3,0-0.6,0.1-0.8,0.2
			c-0.2,0.1-0.3,0.3-0.4,0.5c-0.1,0.2-0.2,0.5-0.2,0.8c0,0.3,0,0.6,0,1v1.5h1.9v1.1h-1.9v6.8h-1.3V66.3z"/>
		<path class="st0" d="M348.5,66.2c0.4-0.4,0.9-0.7,1.5-0.9c0.6-0.2,1.1-0.3,1.7-0.3c1.2,0,2,0.3,2.5,0.8c0.5,0.6,0.8,1.4,0.8,2.5
			v3.4c0,0.2,0,0.5,0,0.7c0,0.2,0.1,0.5,0.1,0.7h-1.3c0-0.2-0.1-0.4-0.1-0.6c0-0.2,0-0.4,0-0.6h0c-0.3,0.4-0.6,0.7-1,1
			c-0.4,0.3-1,0.4-1.6,0.4c-0.4,0-0.8-0.1-1.1-0.2c-0.4-0.1-0.7-0.3-0.9-0.5c-0.3-0.2-0.5-0.4-0.6-0.7c-0.2-0.3-0.2-0.6-0.2-1
			c0-0.7,0.2-1.2,0.5-1.5c0.3-0.4,0.8-0.7,1.3-0.8c0.5-0.2,1-0.3,1.6-0.3c0.6,0,1.1-0.1,1.6-0.1h0.5v-0.2c0-0.6-0.2-1-0.5-1.3
			c-0.3-0.3-0.8-0.4-1.5-0.4c-0.4,0-0.9,0.1-1.3,0.2c-0.4,0.1-0.8,0.4-1.1,0.7L348.5,66.2z M352.4,69.3c-0.8,0-1.5,0.1-2,0.4
			c-0.5,0.2-0.7,0.6-0.7,1.2c0,0.5,0.2,0.9,0.5,1.1c0.3,0.2,0.8,0.3,1.2,0.3c0.4,0,0.7-0.1,1-0.2s0.5-0.3,0.7-0.5s0.3-0.5,0.4-0.8
			c0.1-0.3,0.2-0.6,0.2-0.9v-0.5H352.4z"/>
		<path class="st0" d="M357.9,67c0-0.4,0-0.7,0-1s0-0.6,0-0.9h1.3c0,0.2,0,0.4,0,0.6s0,0.4,0,0.7h0c0.1-0.2,0.2-0.4,0.4-0.6
			c0.2-0.2,0.4-0.3,0.6-0.5c0.2-0.1,0.5-0.3,0.8-0.3c0.3-0.1,0.6-0.1,0.9-0.1c0.5,0,1,0.1,1.4,0.2s0.7,0.4,0.9,0.7s0.4,0.6,0.6,1
			s0.2,0.8,0.2,1.3v4.9h-1.3v-4.8c0-0.7-0.1-1.2-0.4-1.6s-0.8-0.6-1.4-0.6c-0.4,0-0.8,0.1-1.1,0.2s-0.6,0.4-0.8,0.6
			c-0.2,0.3-0.3,0.6-0.4,1c-0.1,0.4-0.1,0.8-0.1,1.2v3.9h-1.3V67z"/>
		<path class="st0" d="M370.7,74.9c-0.1,0.3-0.3,0.6-0.4,0.9c-0.1,0.3-0.3,0.5-0.5,0.7c-0.2,0.2-0.4,0.4-0.7,0.5
			c-0.3,0.1-0.6,0.2-1,0.2c-0.2,0-0.4,0-0.6,0c-0.2,0-0.4-0.1-0.6-0.2l0.2-1.2c0.1,0.1,0.3,0.1,0.4,0.1s0.3,0,0.5,0
			c0.4,0,0.7-0.1,1-0.4c0.2-0.2,0.4-0.6,0.5-1l0.5-1.5l-3.3-8h1.5l2.5,6.2h0l2.4-6.2h1.4L370.7,74.9z"/>
		<path class="st0" d="M381.5,60.3h1.3v8.4l3.6-3.5h1.9l-3.8,3.6l4.2,4.3h-2l-3.9-4.2v4.2h-1.3V60.3z"/>
		<path class="st0" d="M390.2,62c0-0.3,0.1-0.5,0.3-0.7c0.2-0.2,0.4-0.3,0.7-0.3c0.3,0,0.5,0.1,0.7,0.3c0.2,0.2,0.3,0.4,0.3,0.7
			c0,0.3-0.1,0.5-0.3,0.7c-0.2,0.2-0.4,0.3-0.7,0.3s-0.5-0.1-0.7-0.3C390.3,62.6,390.2,62.3,390.2,62z M390.5,65.2h1.3v8h-1.3V65.2z
			"/>
		<path class="st0" d="M394.9,67c0-0.4,0-0.7,0-1s0-0.6,0-0.9h1.3c0,0.2,0,0.4,0,0.6s0,0.4,0,0.7h0c0.1-0.2,0.2-0.4,0.4-0.6
			c0.2-0.2,0.4-0.3,0.6-0.5c0.2-0.1,0.5-0.3,0.8-0.3c0.3-0.1,0.6-0.1,0.9-0.1c0.5,0,1,0.1,1.4,0.2s0.7,0.4,0.9,0.7s0.4,0.6,0.6,1
			s0.2,0.8,0.2,1.3v4.9h-1.3v-4.8c0-0.7-0.1-1.2-0.4-1.6s-0.8-0.6-1.4-0.6c-0.4,0-0.8,0.1-1.1,0.2s-0.6,0.4-0.8,0.6
			c-0.2,0.3-0.3,0.6-0.4,1c-0.1,0.4-0.1,0.8-0.1,1.2v3.9h-1.3V67z"/>
		<path class="st0" d="M411.4,71.7L411.4,71.7c-0.3,0.5-0.7,0.8-1.2,1.1s-1.2,0.5-1.9,0.5c-0.6,0-1.1-0.1-1.6-0.3
			c-0.5-0.2-0.9-0.5-1.3-0.9c-0.4-0.4-0.6-0.8-0.8-1.3c-0.2-0.5-0.3-1.1-0.3-1.7c0-0.6,0.1-1.2,0.3-1.7c0.2-0.5,0.5-1,0.8-1.3
			c0.4-0.4,0.8-0.7,1.3-0.9c0.5-0.2,1.1-0.3,1.7-0.3c0.6,0,1.1,0.1,1.6,0.4c0.5,0.2,0.9,0.6,1.3,1h0v-6.1h1.3v12.9h-1.3V71.7z
			 M411.4,69.1c0-0.4-0.1-0.8-0.2-1.2c-0.1-0.4-0.3-0.7-0.6-0.9c-0.2-0.3-0.5-0.5-0.9-0.6c-0.3-0.2-0.7-0.2-1.2-0.2
			s-0.8,0.1-1.2,0.2s-0.6,0.4-0.9,0.6c-0.2,0.3-0.4,0.6-0.6,0.9c-0.1,0.4-0.2,0.7-0.2,1.2c0,0.4,0.1,0.8,0.2,1.2
			c0.1,0.4,0.3,0.7,0.6,0.9c0.2,0.3,0.5,0.5,0.9,0.6s0.7,0.2,1.2,0.2s0.8-0.1,1.2-0.2c0.3-0.2,0.6-0.4,0.9-0.6
			c0.2-0.3,0.4-0.6,0.6-0.9C411.3,69.9,411.4,69.6,411.4,69.1z"/>
	</g>
	<g>
		<path class="st0" d="M84.4,86.9l2.6-2.6c0.2-0.2,0.3-0.3,0.4-0.4s0.2-0.3,0.3-0.4c0.1-0.1,0.1-0.3,0.2-0.4c0-0.1,0.1-0.3,0.1-0.5
			c0-0.2,0-0.4-0.1-0.5s-0.2-0.3-0.3-0.4s-0.3-0.2-0.4-0.2s-0.3-0.1-0.5-0.1c-0.4,0-0.7,0.1-0.9,0.3c-0.2,0.2-0.4,0.5-0.4,0.8
			l-0.9-0.1c0-0.3,0.1-0.5,0.3-0.8c0.1-0.2,0.3-0.4,0.5-0.6c0.2-0.1,0.4-0.3,0.7-0.3c0.2-0.1,0.5-0.1,0.8-0.1c0.3,0,0.6,0,0.8,0.1
			c0.3,0.1,0.5,0.2,0.7,0.4s0.4,0.4,0.5,0.6s0.2,0.5,0.2,0.8c0,0.3,0,0.5-0.1,0.8c-0.1,0.2-0.2,0.4-0.3,0.6
			c-0.1,0.2-0.3,0.4-0.4,0.5c-0.2,0.2-0.3,0.3-0.5,0.5l-2.2,2v0h3.6v0.8h-4.5V86.9z"/>
		<path class="st0" d="M91,86.7c0.2,0,0.3,0.1,0.4,0.2c0.1,0.1,0.2,0.3,0.2,0.4s-0.1,0.3-0.2,0.4c-0.1,0.1-0.3,0.2-0.4,0.2
			c-0.2,0-0.3-0.1-0.4-0.2c-0.1-0.1-0.2-0.3-0.2-0.4s0.1-0.3,0.2-0.4C90.7,86.8,90.8,86.7,91,86.7z"/>
	</g>
	<g>
		<path class="st0" d="M112.5,82.8h-4v10.7h-1.4V82.8h-4v-1.3h9.4V82.8z"/>
		<path class="st0" d="M114.4,80.7h1.3v6h0c0.1-0.2,0.2-0.3,0.4-0.5c0.2-0.2,0.3-0.3,0.6-0.4s0.5-0.2,0.7-0.3
			c0.3-0.1,0.6-0.1,0.9-0.1c0.5,0,1,0.1,1.4,0.2c0.4,0.2,0.7,0.4,0.9,0.7c0.2,0.3,0.4,0.6,0.6,1c0.1,0.4,0.2,0.8,0.2,1.3v4.9H120
			v-4.8c0-0.7-0.1-1.2-0.4-1.6c-0.3-0.4-0.8-0.6-1.4-0.6c-0.4,0-0.8,0.1-1.1,0.2c-0.3,0.1-0.6,0.4-0.8,0.6s-0.3,0.6-0.4,1
			c-0.1,0.4-0.1,0.8-0.1,1.2v3.9h-1.3V80.7z"/>
		<path class="st0" d="M131.3,92.1c-0.5,0.6-1,1-1.6,1.3c-0.6,0.2-1.2,0.4-2,0.4c-0.6,0-1.2-0.1-1.7-0.3c-0.5-0.2-0.9-0.5-1.3-0.9
			s-0.6-0.8-0.8-1.3c-0.2-0.5-0.3-1.1-0.3-1.6c0-0.6,0.1-1.2,0.3-1.7s0.5-1,0.9-1.3c0.4-0.4,0.8-0.7,1.3-0.9c0.5-0.2,1-0.3,1.6-0.3
			c0.6,0,1.1,0.1,1.5,0.3c0.5,0.2,0.9,0.5,1.2,0.8s0.6,0.8,0.8,1.3s0.3,1.1,0.3,1.8v0.4h-6.4c0,0.3,0.1,0.7,0.2,1
			c0.1,0.3,0.3,0.6,0.6,0.8s0.5,0.4,0.8,0.6c0.3,0.1,0.6,0.2,1,0.2c0.6,0,1.1-0.1,1.5-0.3c0.4-0.2,0.8-0.5,1.1-0.9L131.3,92.1z
			 M130.2,88.8c0-0.7-0.2-1.2-0.7-1.6c-0.4-0.4-1-0.6-1.7-0.6c-0.7,0-1.3,0.2-1.8,0.6c-0.5,0.4-0.7,1-0.8,1.6H130.2z"/>
		<path class="st0" d="M139.1,86.6c0.4-0.4,0.9-0.7,1.5-0.9s1.1-0.3,1.7-0.3c1.2,0,2,0.3,2.6,0.8c0.5,0.6,0.8,1.4,0.8,2.5v3.4
			c0,0.2,0,0.5,0,0.7c0,0.2,0.1,0.5,0.1,0.7h-1.3c0-0.2-0.1-0.4-0.1-0.6c0-0.2,0-0.4,0-0.6h0c-0.3,0.4-0.6,0.7-1,1
			c-0.4,0.3-1,0.4-1.6,0.4c-0.4,0-0.8-0.1-1.1-0.2c-0.4-0.1-0.7-0.3-0.9-0.5s-0.5-0.4-0.6-0.7c-0.2-0.3-0.2-0.6-0.2-1
			c0-0.7,0.2-1.2,0.5-1.5s0.8-0.7,1.3-0.8c0.5-0.2,1-0.3,1.6-0.3c0.6,0,1.1-0.1,1.6-0.1h0.5v-0.2c0-0.6-0.2-1-0.5-1.3
			c-0.3-0.3-0.8-0.4-1.5-0.4c-0.4,0-0.9,0.1-1.3,0.2c-0.4,0.1-0.8,0.4-1.1,0.7L139.1,86.6z M143,89.7c-0.9,0-1.5,0.1-2,0.4
			c-0.5,0.2-0.7,0.6-0.7,1.2c0,0.5,0.2,0.9,0.5,1.1c0.3,0.2,0.8,0.3,1.2,0.3c0.4,0,0.7-0.1,1-0.2c0.3-0.1,0.5-0.3,0.7-0.5
			s0.3-0.5,0.4-0.8s0.2-0.6,0.2-0.9v-0.5H143z"/>
		<path class="st0" d="M154.1,87.5c-0.3-0.3-0.6-0.6-0.9-0.7s-0.7-0.2-1.1-0.2c-0.4,0-0.8,0.1-1.2,0.2c-0.3,0.2-0.6,0.4-0.8,0.6
			c-0.2,0.3-0.4,0.6-0.5,0.9s-0.2,0.7-0.2,1.1s0.1,0.8,0.2,1.1s0.3,0.7,0.5,0.9s0.5,0.5,0.8,0.6c0.3,0.2,0.7,0.2,1.1,0.2
			c0.9,0,1.5-0.3,2-1l1,0.9c-0.4,0.4-0.8,0.8-1.4,1c-0.5,0.2-1.1,0.3-1.6,0.3c-0.6,0-1.2-0.1-1.7-0.3c-0.5-0.2-0.9-0.5-1.3-0.9
			c-0.4-0.4-0.6-0.8-0.8-1.3c-0.2-0.5-0.3-1.1-0.3-1.7c0-0.6,0.1-1.2,0.3-1.7c0.2-0.5,0.5-1,0.8-1.3s0.8-0.7,1.3-0.9
			c0.5-0.2,1.1-0.3,1.7-0.3c0.6,0,1.1,0.1,1.7,0.3s1,0.5,1.4,1L154.1,87.5z"/>
		<path class="st0" d="M161.4,86.7h-2.3v4c0,0.3,0,0.5,0,0.7c0,0.2,0.1,0.4,0.1,0.6c0.1,0.2,0.2,0.3,0.4,0.4
			c0.2,0.1,0.4,0.1,0.7,0.1c0.2,0,0.4,0,0.6-0.1c0.2,0,0.4-0.1,0.6-0.2l0.1,1.2c-0.2,0.1-0.5,0.2-0.8,0.2c-0.3,0-0.5,0.1-0.8,0.1
			c-0.5,0-0.9-0.1-1.1-0.2c-0.3-0.1-0.5-0.3-0.7-0.5c-0.2-0.2-0.3-0.5-0.3-0.8c-0.1-0.3-0.1-0.7-0.1-1.1v-4.4H156v-1.1h1.7v-2.3h1.3
			v2.3h2.3V86.7z"/>
		<path class="st0" d="M168.2,89.5c0-0.6,0.1-1.2,0.3-1.7c0.2-0.5,0.5-0.9,0.9-1.3c0.4-0.4,0.8-0.7,1.3-0.9c0.5-0.2,1.1-0.3,1.7-0.3
			c0.6,0,1.2,0.1,1.7,0.3c0.5,0.2,1,0.5,1.3,0.9c0.4,0.4,0.7,0.8,0.9,1.3c0.2,0.5,0.3,1.1,0.3,1.7c0,0.6-0.1,1.2-0.3,1.7
			c-0.2,0.5-0.5,0.9-0.9,1.3s-0.8,0.7-1.3,0.9c-0.5,0.2-1.1,0.3-1.7,0.3c-0.6,0-1.2-0.1-1.7-0.3c-0.5-0.2-1-0.5-1.3-0.9
			s-0.7-0.8-0.9-1.3C168.3,90.7,168.2,90.2,168.2,89.5z M169.6,89.5c0,0.4,0.1,0.8,0.2,1.2s0.3,0.7,0.6,0.9c0.2,0.3,0.5,0.5,0.9,0.6
			s0.7,0.2,1.2,0.2s0.8-0.1,1.2-0.2s0.6-0.4,0.9-0.6c0.2-0.3,0.4-0.6,0.6-0.9s0.2-0.7,0.2-1.2c0-0.4-0.1-0.8-0.2-1.2
			s-0.3-0.7-0.6-0.9c-0.2-0.3-0.5-0.5-0.9-0.6s-0.7-0.2-1.2-0.2s-0.8,0.1-1.2,0.2s-0.6,0.4-0.9,0.6c-0.2,0.3-0.4,0.6-0.6,0.9
			S169.6,89.1,169.6,89.5z"/>
		<path class="st0" d="M179.8,86.7h-1.7v-1.1h1.7v-1.8c0-0.5,0-0.9,0.1-1.3c0.1-0.4,0.2-0.8,0.5-1c0.2-0.3,0.5-0.5,0.9-0.7
			c0.4-0.2,0.8-0.2,1.3-0.2c0.2,0,0.4,0,0.5,0.1c0.2,0,0.4,0.1,0.5,0.2l-0.2,1.2c-0.3-0.1-0.6-0.2-0.9-0.2c-0.3,0-0.6,0.1-0.8,0.2
			c-0.2,0.1-0.3,0.3-0.4,0.5c-0.1,0.2-0.2,0.5-0.2,0.8c0,0.3,0,0.6,0,1v1.5h1.9v1.1h-1.9v6.8h-1.3V86.7z"/>
		<path class="st0" d="M190.1,87.4c0-0.4,0-0.7,0-1c0-0.3,0-0.6,0-0.9h1.3c0,0.2,0,0.4,0,0.6s0,0.4,0,0.7h0c0.1-0.2,0.2-0.4,0.4-0.6
			c0.2-0.2,0.4-0.3,0.6-0.5s0.5-0.3,0.8-0.3c0.3-0.1,0.6-0.1,0.9-0.1c0.4,0,0.8,0.1,1.1,0.2c0.3,0.1,0.5,0.2,0.7,0.4
			c0.2,0.2,0.3,0.3,0.5,0.5s0.2,0.3,0.3,0.5c0.3-0.5,0.6-0.8,1-1.1c0.4-0.3,0.9-0.4,1.5-0.4c0.6,0,1,0.1,1.4,0.2
			c0.4,0.2,0.7,0.4,0.9,0.7s0.4,0.6,0.5,1.1c0.1,0.4,0.2,0.9,0.2,1.4v4.8h-1.3v-4.8c0-0.3,0-0.5-0.1-0.8c-0.1-0.3-0.2-0.5-0.3-0.7
			c-0.1-0.2-0.3-0.4-0.6-0.5c-0.2-0.1-0.6-0.2-1-0.2c-0.3,0-0.5,0.1-0.8,0.2c-0.2,0.1-0.5,0.3-0.7,0.5s-0.3,0.5-0.4,0.7
			c-0.1,0.3-0.2,0.6-0.2,1v4.6h-1.3V89c0-0.9-0.1-1.5-0.4-1.9c-0.2-0.4-0.6-0.6-1.2-0.6c-0.4,0-0.8,0.1-1.1,0.2
			c-0.3,0.1-0.6,0.4-0.8,0.6s-0.3,0.6-0.4,1c-0.1,0.4-0.1,0.8-0.1,1.2v3.9h-1.3V87.4z"/>
		<path class="st0" d="M204.9,86.6c0.4-0.4,0.9-0.7,1.5-0.9s1.1-0.3,1.7-0.3c1.2,0,2,0.3,2.6,0.8c0.5,0.6,0.8,1.4,0.8,2.5v3.4
			c0,0.2,0,0.5,0,0.7c0,0.2,0.1,0.5,0.1,0.7h-1.3c0-0.2-0.1-0.4-0.1-0.6c0-0.2,0-0.4,0-0.6h0c-0.3,0.4-0.6,0.7-1,1
			c-0.4,0.3-1,0.4-1.6,0.4c-0.4,0-0.8-0.1-1.1-0.2c-0.4-0.1-0.7-0.3-0.9-0.5s-0.5-0.4-0.6-0.7c-0.2-0.3-0.2-0.6-0.2-1
			c0-0.7,0.2-1.2,0.5-1.5s0.8-0.7,1.3-0.8c0.5-0.2,1-0.3,1.6-0.3c0.6,0,1.1-0.1,1.6-0.1h0.5v-0.2c0-0.6-0.2-1-0.5-1.3
			c-0.3-0.3-0.8-0.4-1.5-0.4c-0.4,0-0.9,0.1-1.3,0.2c-0.4,0.1-0.8,0.4-1.1,0.7L204.9,86.6z M208.7,89.7c-0.9,0-1.5,0.1-2,0.4
			c-0.5,0.2-0.7,0.6-0.7,1.2c0,0.5,0.2,0.9,0.5,1.1c0.3,0.2,0.8,0.3,1.2,0.3c0.4,0,0.7-0.1,1-0.2c0.3-0.1,0.5-0.3,0.7-0.5
			s0.3-0.5,0.4-0.8s0.2-0.6,0.2-0.9v-0.5H208.7z"/>
		<path class="st0" d="M216.3,89.2l-2.9-3.7h1.7l2.1,2.9l2-2.9h1.6l-2.7,3.7l3.3,4.3h-1.8l-2.5-3.4l-2.5,3.4H213L216.3,89.2z"/>
		<path class="st0" d="M223,82.4c0-0.3,0.1-0.5,0.3-0.7c0.2-0.2,0.4-0.3,0.7-0.3s0.5,0.1,0.7,0.3c0.2,0.2,0.3,0.4,0.3,0.7
			c0,0.3-0.1,0.5-0.3,0.7c-0.2,0.2-0.4,0.3-0.7,0.3c-0.3,0-0.5-0.1-0.7-0.3C223,83,223,82.7,223,82.4z M223.3,85.6h1.3v8h-1.3V85.6z
			"/>
		<path class="st0" d="M227.6,87.4c0-0.4,0-0.7,0-1c0-0.3,0-0.6,0-0.9h1.3c0,0.2,0,0.4,0,0.6s0,0.4,0,0.7h0c0.1-0.2,0.2-0.4,0.4-0.6
			c0.2-0.2,0.4-0.3,0.6-0.5s0.5-0.3,0.8-0.3c0.3-0.1,0.6-0.1,0.9-0.1c0.4,0,0.8,0.1,1.1,0.2c0.3,0.1,0.5,0.2,0.7,0.4
			c0.2,0.2,0.3,0.3,0.5,0.5s0.2,0.3,0.3,0.5c0.3-0.5,0.6-0.8,1-1.1c0.4-0.3,0.9-0.4,1.5-0.4c0.6,0,1,0.1,1.4,0.2
			c0.4,0.2,0.7,0.4,0.9,0.7s0.4,0.6,0.5,1.1c0.1,0.4,0.2,0.9,0.2,1.4v4.8h-1.3v-4.8c0-0.3,0-0.5-0.1-0.8c-0.1-0.3-0.2-0.5-0.3-0.7
			c-0.1-0.2-0.3-0.4-0.6-0.5c-0.2-0.1-0.6-0.2-1-0.2c-0.3,0-0.5,0.1-0.8,0.2c-0.2,0.1-0.5,0.3-0.7,0.5s-0.3,0.5-0.4,0.7
			c-0.1,0.3-0.2,0.6-0.2,1v4.6H233V89c0-0.9-0.1-1.5-0.4-1.9c-0.2-0.4-0.6-0.6-1.2-0.6c-0.4,0-0.8,0.1-1.1,0.2
			c-0.3,0.1-0.6,0.4-0.8,0.6s-0.3,0.6-0.4,1c-0.1,0.4-0.1,0.8-0.1,1.2v3.9h-1.3V87.4z"/>
		<path class="st0" d="M242.4,82.4c0-0.3,0.1-0.5,0.3-0.7c0.2-0.2,0.4-0.3,0.7-0.3s0.5,0.1,0.7,0.3c0.2,0.2,0.3,0.4,0.3,0.7
			c0,0.3-0.1,0.5-0.3,0.7c-0.2,0.2-0.4,0.3-0.7,0.3c-0.3,0-0.5-0.1-0.7-0.3C242.5,83,242.4,82.7,242.4,82.4z M242.7,85.6h1.3v8h-1.3
			V85.6z"/>
		<path class="st0" d="M247.2,91.4c0.3,0.3,0.5,0.6,0.9,0.8c0.3,0.2,0.7,0.3,1.2,0.3c0.2,0,0.4,0,0.6-0.1c0.2,0,0.4-0.1,0.6-0.2
			c0.2-0.1,0.3-0.2,0.4-0.4c0.1-0.2,0.2-0.3,0.2-0.6c0-0.2,0-0.4-0.1-0.5c-0.1-0.1-0.2-0.3-0.4-0.3c-0.2-0.1-0.3-0.2-0.5-0.2
			c-0.2-0.1-0.4-0.1-0.6-0.2c-0.4-0.1-0.7-0.2-1.1-0.3c-0.3-0.1-0.6-0.2-0.9-0.4c-0.3-0.2-0.5-0.4-0.6-0.6c-0.2-0.3-0.2-0.6-0.2-1
			c0-0.4,0.1-0.7,0.3-1c0.2-0.3,0.4-0.5,0.7-0.7s0.6-0.3,1-0.4c0.4-0.1,0.7-0.2,1.1-0.2c0.6,0,1.1,0.1,1.6,0.3
			c0.5,0.2,0.9,0.6,1.1,1.1l-1.1,0.7c-0.2-0.3-0.4-0.5-0.7-0.7c-0.3-0.2-0.6-0.3-1-0.3c-0.2,0-0.4,0-0.6,0.1c-0.2,0-0.4,0.1-0.5,0.2
			c-0.1,0.1-0.3,0.2-0.4,0.3c-0.1,0.1-0.1,0.3-0.1,0.5c0,0.2,0.1,0.3,0.2,0.4c0.1,0.1,0.3,0.2,0.4,0.3c0.2,0.1,0.4,0.2,0.6,0.2
			c0.2,0.1,0.5,0.1,0.8,0.2c0.4,0.1,0.7,0.2,1,0.3c0.3,0.1,0.6,0.3,0.8,0.4c0.2,0.2,0.4,0.4,0.6,0.7c0.1,0.3,0.2,0.6,0.2,1
			c0,0.5-0.1,0.8-0.3,1.2c-0.2,0.3-0.4,0.6-0.7,0.8c-0.3,0.2-0.6,0.3-1,0.4c-0.4,0.1-0.8,0.1-1.2,0.1c-0.7,0-1.3-0.1-1.8-0.3
			c-0.5-0.2-0.9-0.6-1.3-1.2L247.2,91.4z"/>
		<path class="st0" d="M254.5,82.4c0-0.3,0.1-0.5,0.3-0.7c0.2-0.2,0.4-0.3,0.7-0.3s0.5,0.1,0.7,0.3c0.2,0.2,0.3,0.4,0.3,0.7
			c0,0.3-0.1,0.5-0.3,0.7c-0.2,0.2-0.4,0.3-0.7,0.3c-0.3,0-0.5-0.1-0.7-0.3C254.6,83,254.5,82.7,254.5,82.4z M254.8,85.6h1.3v8h-1.3
			V85.6z"/>
		<path class="st0" d="M259.2,87.4c0-0.4,0-0.7,0-1s0-0.6,0-0.9h1.3c0,0.2,0,0.4,0,0.6s0,0.4,0,0.7h0c0.1-0.2,0.2-0.4,0.4-0.6
			c0.2-0.2,0.4-0.3,0.6-0.5c0.2-0.1,0.5-0.3,0.8-0.3c0.3-0.1,0.6-0.1,0.9-0.1c0.5,0,1,0.1,1.4,0.2s0.7,0.4,0.9,0.7s0.4,0.6,0.6,1
			s0.2,0.8,0.2,1.3v4.9h-1.3v-4.8c0-0.7-0.1-1.2-0.4-1.6s-0.8-0.6-1.4-0.6c-0.4,0-0.8,0.1-1.1,0.2s-0.6,0.4-0.8,0.6
			c-0.2,0.3-0.3,0.6-0.4,1c-0.1,0.4-0.1,0.8-0.1,1.2v3.9h-1.3V87.4z"/>
		<path class="st0" d="M277,93.2c0,1.5-0.4,2.6-1.1,3.3c-0.7,0.8-1.8,1.1-3.2,1.1c-0.8,0-1.5-0.1-2.1-0.3c-0.6-0.2-1.2-0.6-1.8-1.2
			l1-1.1c0.4,0.5,0.9,0.8,1.3,1c0.5,0.2,1,0.3,1.6,0.3c0.6,0,1.1-0.1,1.5-0.3c0.4-0.2,0.7-0.4,0.9-0.7s0.4-0.6,0.5-1
			c0.1-0.4,0.1-0.8,0.1-1.2v-1h0c-0.3,0.5-0.7,0.9-1.2,1.1c-0.5,0.2-1,0.4-1.6,0.4c-0.6,0-1.2-0.1-1.7-0.3c-0.5-0.2-1-0.5-1.3-0.9
			c-0.4-0.4-0.7-0.8-0.9-1.3c-0.2-0.5-0.3-1-0.3-1.6c0-0.6,0.1-1.2,0.3-1.8c0.2-0.5,0.5-1,0.9-1.3c0.4-0.4,0.8-0.6,1.3-0.8
			c0.5-0.2,1.1-0.3,1.7-0.3c0.3,0,0.5,0,0.8,0.1c0.3,0.1,0.5,0.2,0.8,0.3s0.5,0.3,0.7,0.5c0.2,0.2,0.4,0.4,0.5,0.7h0v-1.4h1.3V93.2z
			 M270,89.5c0,0.4,0.1,0.8,0.2,1.1c0.1,0.3,0.3,0.6,0.6,0.9c0.3,0.3,0.6,0.5,0.9,0.6c0.3,0.1,0.7,0.2,1.1,0.2
			c0.5,0,0.9-0.1,1.2-0.2c0.4-0.2,0.6-0.4,0.9-0.6c0.2-0.3,0.4-0.6,0.6-0.9c0.1-0.3,0.2-0.7,0.2-1.1c0-0.4-0.1-0.8-0.2-1.2
			s-0.3-0.7-0.6-0.9c-0.2-0.3-0.5-0.5-0.9-0.6c-0.4-0.1-0.7-0.2-1.2-0.2c-0.4,0-0.8,0.1-1.1,0.2s-0.6,0.4-0.9,0.6
			c-0.2,0.3-0.4,0.6-0.6,0.9C270.1,88.7,270,89.1,270,89.5z"/>
		<path class="st0" d="M284.6,89.5c0-0.6,0.1-1.2,0.3-1.7c0.2-0.5,0.5-0.9,0.9-1.3c0.4-0.4,0.8-0.7,1.3-0.9s1.1-0.3,1.7-0.3
			s1.2,0.1,1.7,0.3s1,0.5,1.3,0.9c0.4,0.4,0.7,0.8,0.9,1.3c0.2,0.5,0.3,1.1,0.3,1.7c0,0.6-0.1,1.2-0.3,1.7c-0.2,0.5-0.5,0.9-0.9,1.3
			s-0.8,0.7-1.3,0.9s-1.1,0.3-1.7,0.3s-1.2-0.1-1.7-0.3s-1-0.5-1.3-0.9s-0.7-0.8-0.9-1.3C284.7,90.7,284.6,90.2,284.6,89.5z
			 M286,89.5c0,0.4,0.1,0.8,0.2,1.2c0.1,0.4,0.3,0.7,0.6,0.9c0.2,0.3,0.5,0.5,0.9,0.6s0.7,0.2,1.2,0.2s0.8-0.1,1.2-0.2
			c0.3-0.2,0.6-0.4,0.9-0.6c0.2-0.3,0.4-0.6,0.6-0.9c0.1-0.4,0.2-0.7,0.2-1.2c0-0.4-0.1-0.8-0.2-1.2c-0.1-0.4-0.3-0.7-0.6-0.9
			c-0.2-0.3-0.5-0.5-0.9-0.6c-0.3-0.2-0.7-0.2-1.2-0.2s-0.8,0.1-1.2,0.2s-0.6,0.4-0.9,0.6c-0.2,0.3-0.4,0.6-0.6,0.9
			C286.1,88.7,286,89.1,286,89.5z"/>
		<path class="st0" d="M295.5,87.4c0-0.4,0-0.7,0-1s0-0.6,0-0.9h1.3c0,0.2,0,0.4,0,0.6s0,0.4,0,0.7h0c0.1-0.2,0.2-0.4,0.4-0.6
			c0.2-0.2,0.4-0.3,0.6-0.5c0.2-0.1,0.5-0.3,0.8-0.3c0.3-0.1,0.6-0.1,0.9-0.1c0.5,0,1,0.1,1.4,0.2s0.7,0.4,0.9,0.7s0.4,0.6,0.6,1
			s0.2,0.8,0.2,1.3v4.9h-1.3v-4.8c0-0.7-0.1-1.2-0.4-1.6s-0.8-0.6-1.4-0.6c-0.4,0-0.8,0.1-1.1,0.2s-0.6,0.4-0.8,0.6
			c-0.2,0.3-0.3,0.6-0.4,1c-0.1,0.4-0.1,0.8-0.1,1.2v3.9h-1.3V87.4z"/>
		<path class="st0" d="M312.5,92.1c-0.5,0.6-1,1-1.6,1.3s-1.2,0.4-2,0.4c-0.6,0-1.2-0.1-1.7-0.3c-0.5-0.2-0.9-0.5-1.3-0.9
			c-0.3-0.4-0.6-0.8-0.8-1.3c-0.2-0.5-0.3-1.1-0.3-1.6c0-0.6,0.1-1.2,0.3-1.7c0.2-0.5,0.5-1,0.8-1.3c0.4-0.4,0.8-0.7,1.3-0.9
			c0.5-0.2,1-0.3,1.6-0.3c0.6,0,1.1,0.1,1.5,0.3s0.9,0.5,1.2,0.8s0.6,0.8,0.8,1.3s0.3,1.1,0.3,1.8v0.4h-6.4c0,0.3,0.1,0.7,0.2,1
			c0.1,0.3,0.3,0.6,0.6,0.8c0.2,0.2,0.5,0.4,0.8,0.6c0.3,0.1,0.6,0.2,1,0.2c0.6,0,1.1-0.1,1.5-0.3c0.4-0.2,0.8-0.5,1.1-0.9
			L312.5,92.1z M311.4,88.8c0-0.7-0.2-1.2-0.7-1.6c-0.4-0.4-1-0.6-1.7-0.6c-0.7,0-1.3,0.2-1.8,0.6c-0.5,0.4-0.7,1-0.8,1.6H311.4z"/>
		<path class="st0" d="M316.3,85.6H315l1.1-4.1h1.5L316.3,85.6z"/>
		<path class="st0" d="M319.4,91.4c0.3,0.3,0.5,0.6,0.9,0.8c0.3,0.2,0.7,0.3,1.2,0.3c0.2,0,0.4,0,0.6-0.1c0.2,0,0.4-0.1,0.6-0.2
			s0.3-0.2,0.4-0.4c0.1-0.2,0.2-0.3,0.2-0.6c0-0.2,0-0.4-0.1-0.5c-0.1-0.1-0.2-0.3-0.4-0.3c-0.2-0.1-0.3-0.2-0.5-0.2
			c-0.2-0.1-0.4-0.1-0.6-0.2c-0.4-0.1-0.7-0.2-1.1-0.3s-0.6-0.2-0.9-0.4c-0.3-0.2-0.5-0.4-0.6-0.6s-0.2-0.6-0.2-1
			c0-0.4,0.1-0.7,0.3-1c0.2-0.3,0.4-0.5,0.7-0.7c0.3-0.2,0.6-0.3,1-0.4c0.4-0.1,0.7-0.2,1.1-0.2c0.6,0,1.1,0.1,1.6,0.3
			c0.5,0.2,0.9,0.6,1.1,1.1l-1.1,0.7c-0.2-0.3-0.4-0.5-0.7-0.7c-0.3-0.2-0.6-0.3-1-0.3c-0.2,0-0.4,0-0.6,0.1c-0.2,0-0.4,0.1-0.5,0.2
			c-0.1,0.1-0.3,0.2-0.4,0.3c-0.1,0.1-0.1,0.3-0.1,0.5c0,0.2,0.1,0.3,0.2,0.4s0.3,0.2,0.4,0.3c0.2,0.1,0.4,0.2,0.6,0.2
			c0.2,0.1,0.5,0.1,0.8,0.2c0.4,0.1,0.7,0.2,1,0.3c0.3,0.1,0.6,0.3,0.8,0.4c0.2,0.2,0.4,0.4,0.6,0.7c0.1,0.3,0.2,0.6,0.2,1
			c0,0.5-0.1,0.8-0.3,1.2c-0.2,0.3-0.4,0.6-0.7,0.8c-0.3,0.2-0.6,0.3-1,0.4c-0.4,0.1-0.8,0.1-1.2,0.1c-0.7,0-1.3-0.1-1.8-0.3
			c-0.5-0.2-0.9-0.6-1.3-1.2L319.4,91.4z"/>
		<path class="st0" d="M332.7,86.7H331v-1.1h1.7v-1.8c0-0.5,0-0.9,0.1-1.3c0.1-0.4,0.2-0.8,0.5-1c0.2-0.3,0.5-0.5,0.9-0.7
			c0.4-0.2,0.8-0.2,1.3-0.2c0.2,0,0.4,0,0.5,0.1c0.2,0,0.4,0.1,0.5,0.2l-0.2,1.2c-0.3-0.1-0.6-0.2-0.9-0.2c-0.3,0-0.6,0.1-0.8,0.2
			c-0.2,0.1-0.3,0.3-0.4,0.5c-0.1,0.2-0.2,0.5-0.2,0.8c0,0.3,0,0.6,0,1v1.5h1.9v1.1H334v6.8h-1.3V86.7z"/>
		<path class="st0" d="M344.7,91.6c0,0.4,0,0.7,0,1c0,0.3,0,0.6,0,0.9h-1.3c0-0.2,0-0.4,0-0.6c0-0.2,0-0.4,0-0.7h0
			c-0.1,0.2-0.2,0.4-0.4,0.6c-0.2,0.2-0.4,0.3-0.6,0.5c-0.2,0.1-0.5,0.3-0.8,0.3s-0.6,0.1-0.9,0.1c-0.5,0-1-0.1-1.4-0.2
			c-0.4-0.2-0.7-0.4-0.9-0.7c-0.2-0.3-0.4-0.6-0.6-1c-0.1-0.4-0.2-0.8-0.2-1.3v-4.9h1.3v4.8c0,0.7,0.1,1.2,0.4,1.6
			c0.3,0.4,0.8,0.6,1.4,0.6c0.4,0,0.8-0.1,1.1-0.2c0.3-0.1,0.6-0.4,0.8-0.6s0.3-0.6,0.4-1c0.1-0.4,0.1-0.8,0.1-1.2v-3.9h1.3V91.6z"
			/>
		<path class="st0" d="M347.8,80.7h1.3v12.9h-1.3V80.7z"/>
		<path class="st0" d="M352.3,80.7h1.3v12.9h-1.3V80.7z"/>
		<path class="st0" d="M361.7,85.6h1.3v1.2h0c0.4-0.4,0.8-0.8,1.3-1c0.5-0.2,1-0.4,1.6-0.4c0.6,0,1.2,0.1,1.7,0.3
			c0.5,0.2,1,0.5,1.3,0.9c0.4,0.4,0.6,0.8,0.9,1.3c0.2,0.5,0.3,1.1,0.3,1.7c0,0.6-0.1,1.2-0.3,1.7c-0.2,0.5-0.5,1-0.8,1.3
			c-0.4,0.4-0.8,0.7-1.3,0.9c-0.5,0.2-1,0.3-1.6,0.3c-0.7,0-1.3-0.2-1.9-0.5s-0.9-0.7-1.2-1.1h0v5.3h-1.3V85.6z M363.1,89.5
			c0,0.4,0.1,0.8,0.2,1.2c0.1,0.4,0.3,0.7,0.6,0.9c0.2,0.3,0.5,0.5,0.9,0.6s0.7,0.2,1.2,0.2s0.8-0.1,1.2-0.2
			c0.3-0.2,0.6-0.4,0.9-0.6c0.2-0.3,0.4-0.6,0.6-0.9c0.1-0.4,0.2-0.7,0.2-1.2c0-0.4-0.1-0.8-0.2-1.2c-0.1-0.4-0.3-0.7-0.6-0.9
			c-0.2-0.3-0.5-0.5-0.9-0.6c-0.3-0.2-0.7-0.2-1.2-0.2s-0.8,0.1-1.2,0.2s-0.6,0.4-0.9,0.6c-0.2,0.3-0.4,0.6-0.6,0.9
			C363.1,88.7,363.1,89.1,363.1,89.5z"/>
		<path class="st0" d="M372.2,89.5c0-0.6,0.1-1.2,0.3-1.7c0.2-0.5,0.5-0.9,0.9-1.3c0.4-0.4,0.8-0.7,1.3-0.9s1.1-0.3,1.7-0.3
			s1.2,0.1,1.7,0.3s1,0.5,1.3,0.9c0.4,0.4,0.7,0.8,0.9,1.3c0.2,0.5,0.3,1.1,0.3,1.7c0,0.6-0.1,1.2-0.3,1.7c-0.2,0.5-0.5,0.9-0.9,1.3
			s-0.8,0.7-1.3,0.9s-1.1,0.3-1.7,0.3s-1.2-0.1-1.7-0.3s-1-0.5-1.3-0.9s-0.7-0.8-0.9-1.3C372.3,90.7,372.2,90.2,372.2,89.5z
			 M373.6,89.5c0,0.4,0.1,0.8,0.2,1.2c0.1,0.4,0.3,0.7,0.6,0.9c0.2,0.3,0.5,0.5,0.9,0.6s0.7,0.2,1.2,0.2s0.8-0.1,1.2-0.2
			c0.3-0.2,0.6-0.4,0.9-0.6c0.2-0.3,0.4-0.6,0.6-0.9c0.1-0.4,0.2-0.7,0.2-1.2c0-0.4-0.1-0.8-0.2-1.2c-0.1-0.4-0.3-0.7-0.6-0.9
			c-0.2-0.3-0.5-0.5-0.9-0.6c-0.3-0.2-0.7-0.2-1.2-0.2s-0.8,0.1-1.2,0.2s-0.6,0.4-0.9,0.6c-0.2,0.3-0.4,0.6-0.6,0.9
			C373.7,88.7,373.6,89.1,373.6,89.5z"/>
		<path class="st0" d="M387.5,86.7h-2.3v4c0,0.3,0,0.5,0,0.7c0,0.2,0.1,0.4,0.1,0.6c0.1,0.2,0.2,0.3,0.4,0.4
			c0.2,0.1,0.4,0.1,0.7,0.1c0.2,0,0.4,0,0.6-0.1s0.4-0.1,0.6-0.2l0.1,1.2c-0.2,0.1-0.5,0.2-0.8,0.2c-0.3,0-0.5,0.1-0.8,0.1
			c-0.5,0-0.9-0.1-1.1-0.2s-0.5-0.3-0.7-0.5c-0.2-0.2-0.3-0.5-0.3-0.8c-0.1-0.3-0.1-0.7-0.1-1.1v-4.4h-1.7v-1.1h1.7v-2.3h1.3v2.3
			h2.3V86.7z"/>
		<path class="st0" d="M396.6,92.1c-0.5,0.6-1,1-1.6,1.3s-1.2,0.4-2,0.4c-0.6,0-1.2-0.1-1.7-0.3c-0.5-0.2-0.9-0.5-1.3-0.9
			c-0.3-0.4-0.6-0.8-0.8-1.3c-0.2-0.5-0.3-1.1-0.3-1.6c0-0.6,0.1-1.2,0.3-1.7c0.2-0.5,0.5-1,0.8-1.3c0.4-0.4,0.8-0.7,1.3-0.9
			c0.5-0.2,1-0.3,1.6-0.3c0.6,0,1.1,0.1,1.5,0.3s0.9,0.5,1.2,0.8s0.6,0.8,0.8,1.3s0.3,1.1,0.3,1.8v0.4h-6.4c0,0.3,0.1,0.7,0.2,1
			c0.1,0.3,0.3,0.6,0.6,0.8c0.2,0.2,0.5,0.4,0.8,0.6c0.3,0.1,0.6,0.2,1,0.2c0.6,0,1.1-0.1,1.5-0.3c0.4-0.2,0.8-0.5,1.1-0.9
			L396.6,92.1z M395.5,88.8c0-0.7-0.2-1.2-0.7-1.6c-0.4-0.4-1-0.6-1.7-0.6c-0.7,0-1.3,0.2-1.8,0.6c-0.5,0.4-0.7,1-0.8,1.6H395.5z"/>
		<path class="st0" d="M399.4,87.4c0-0.4,0-0.7,0-1s0-0.6,0-0.9h1.3c0,0.2,0,0.4,0,0.6s0,0.4,0,0.7h0c0.1-0.2,0.2-0.4,0.4-0.6
			c0.2-0.2,0.4-0.3,0.6-0.5c0.2-0.1,0.5-0.3,0.8-0.3c0.3-0.1,0.6-0.1,0.9-0.1c0.5,0,1,0.1,1.4,0.2s0.7,0.4,0.9,0.7s0.4,0.6,0.6,1
			s0.2,0.8,0.2,1.3v4.9H405v-4.8c0-0.7-0.1-1.2-0.4-1.6s-0.8-0.6-1.4-0.6c-0.4,0-0.8,0.1-1.1,0.2s-0.6,0.4-0.8,0.6
			c-0.2,0.3-0.3,0.6-0.4,1c-0.1,0.4-0.1,0.8-0.1,1.2v3.9h-1.3V87.4z"/>
		<path class="st0" d="M413.6,86.7h-2.3v4c0,0.3,0,0.5,0,0.7c0,0.2,0.1,0.4,0.1,0.6c0.1,0.2,0.2,0.3,0.4,0.4
			c0.2,0.1,0.4,0.1,0.7,0.1c0.2,0,0.4,0,0.6-0.1s0.4-0.1,0.6-0.2l0.1,1.2c-0.2,0.1-0.5,0.2-0.8,0.2c-0.3,0-0.5,0.1-0.8,0.1
			c-0.5,0-0.9-0.1-1.1-0.2s-0.5-0.3-0.7-0.5c-0.2-0.2-0.3-0.5-0.3-0.8c-0.1-0.3-0.1-0.7-0.1-1.1v-4.4h-1.7v-1.1h1.7v-2.3h1.3v2.3
			h2.3V86.7z"/>
		<path class="st0" d="M415.5,82.4c0-0.3,0.1-0.5,0.3-0.7c0.2-0.2,0.4-0.3,0.7-0.3c0.3,0,0.5,0.1,0.7,0.3c0.2,0.2,0.3,0.4,0.3,0.7
			c0,0.3-0.1,0.5-0.3,0.7c-0.2,0.2-0.4,0.3-0.7,0.3s-0.5-0.1-0.7-0.3C415.6,83,415.5,82.7,415.5,82.4z M415.8,85.6h1.3v8h-1.3V85.6z
			"/>
		<path class="st0" d="M420.1,86.6c0.4-0.4,0.9-0.7,1.5-0.9c0.6-0.2,1.1-0.3,1.7-0.3c1.2,0,2,0.3,2.5,0.8c0.5,0.6,0.8,1.4,0.8,2.5
			v3.4c0,0.2,0,0.5,0,0.7c0,0.2,0.1,0.5,0.1,0.7h-1.3c0-0.2-0.1-0.4-0.1-0.6c0-0.2,0-0.4,0-0.6h0c-0.3,0.4-0.6,0.7-1,1
			c-0.4,0.3-1,0.4-1.6,0.4c-0.4,0-0.8-0.1-1.1-0.2c-0.4-0.1-0.7-0.3-0.9-0.5c-0.3-0.2-0.5-0.4-0.6-0.7c-0.2-0.3-0.2-0.6-0.2-1
			c0-0.7,0.2-1.2,0.5-1.5c0.3-0.4,0.8-0.7,1.3-0.8c0.5-0.2,1-0.3,1.6-0.3c0.6,0,1.1-0.1,1.6-0.1h0.5v-0.2c0-0.6-0.2-1-0.5-1.3
			c-0.3-0.3-0.8-0.4-1.5-0.4c-0.4,0-0.9,0.1-1.3,0.2c-0.4,0.1-0.8,0.4-1.1,0.7L420.1,86.6z M423.9,89.7c-0.8,0-1.5,0.1-2,0.4
			c-0.5,0.2-0.7,0.6-0.7,1.2c0,0.5,0.2,0.9,0.5,1.1c0.3,0.2,0.8,0.3,1.2,0.3c0.4,0,0.7-0.1,1-0.2s0.5-0.3,0.7-0.5s0.3-0.5,0.4-0.8
			c0.1-0.3,0.2-0.6,0.2-0.9v-0.5H423.9z"/>
		<path class="st0" d="M429.5,80.7h1.3v12.9h-1.3V80.7z"/>
	</g>
	<g>
		<path class="st0" d="M0,144.8h1.4v12H0V144.8z"/>
		<path class="st0" d="M4.6,150.8c0-0.4,0-0.7,0-1c0-0.3,0-0.6,0-0.9h1.3c0,0.2,0,0.4,0,0.6c0,0.2,0,0.4,0,0.7h0
			c0.1-0.2,0.2-0.4,0.4-0.6c0.2-0.2,0.4-0.3,0.6-0.5s0.5-0.3,0.8-0.3s0.6-0.1,0.9-0.1c0.5,0,1,0.1,1.4,0.2c0.4,0.2,0.7,0.4,0.9,0.7
			c0.2,0.3,0.4,0.6,0.6,1c0.1,0.4,0.2,0.8,0.2,1.3v4.9h-1.3v-4.8c0-0.7-0.1-1.2-0.4-1.6c-0.3-0.4-0.8-0.6-1.4-0.6
			c-0.4,0-0.8,0.1-1.1,0.2c-0.3,0.1-0.6,0.4-0.8,0.6c-0.2,0.3-0.3,0.6-0.4,1c-0.1,0.4-0.1,0.8-0.1,1.2v3.9H4.6V150.8z"/>
		<path class="st0" d="M19.2,152.9c0-0.6,0.1-1.2,0.3-1.7c0.2-0.5,0.5-0.9,0.9-1.3s0.8-0.7,1.3-0.9c0.5-0.2,1.1-0.3,1.7-0.3
			c0.6,0,1.2,0.1,1.7,0.3c0.5,0.2,1,0.5,1.3,0.9s0.7,0.8,0.9,1.3c0.2,0.5,0.3,1.1,0.3,1.7c0,0.6-0.1,1.2-0.3,1.7
			c-0.2,0.5-0.5,0.9-0.9,1.3c-0.4,0.4-0.8,0.7-1.3,0.9c-0.5,0.2-1.1,0.3-1.7,0.3c-0.6,0-1.2-0.1-1.7-0.3c-0.5-0.2-1-0.5-1.3-0.9
			c-0.4-0.4-0.7-0.8-0.9-1.3C19.3,154,19.2,153.5,19.2,152.9z M20.6,152.9c0,0.4,0.1,0.8,0.2,1.2s0.3,0.7,0.6,0.9
			c0.2,0.3,0.5,0.5,0.9,0.6c0.3,0.2,0.7,0.2,1.2,0.2s0.8-0.1,1.2-0.2c0.3-0.2,0.6-0.4,0.9-0.6c0.2-0.3,0.4-0.6,0.6-0.9
			s0.2-0.7,0.2-1.2c0-0.4-0.1-0.8-0.2-1.2c-0.1-0.4-0.3-0.7-0.6-0.9c-0.2-0.3-0.5-0.5-0.9-0.6c-0.3-0.2-0.7-0.2-1.2-0.2
			s-0.8,0.1-1.2,0.2c-0.3,0.2-0.6,0.4-0.9,0.6c-0.2,0.3-0.4,0.6-0.6,0.9C20.7,152.1,20.6,152.4,20.6,152.9z"/>
		<path class="st0" d="M37.1,155c0,0.4,0,0.7,0,1c0,0.3,0,0.6,0,0.9h-1.3c0-0.2,0-0.4,0-0.6c0-0.2,0-0.4,0-0.7h0
			c-0.1,0.2-0.2,0.4-0.4,0.6c-0.2,0.2-0.4,0.3-0.6,0.5s-0.5,0.3-0.8,0.3c-0.3,0.1-0.6,0.1-0.9,0.1c-0.5,0-1-0.1-1.4-0.2
			c-0.4-0.2-0.7-0.4-0.9-0.7c-0.2-0.3-0.4-0.6-0.6-1s-0.2-0.8-0.2-1.3v-4.9h1.3v4.8c0,0.7,0.1,1.2,0.4,1.6c0.3,0.4,0.8,0.6,1.4,0.6
			c0.4,0,0.8-0.1,1.1-0.2c0.3-0.1,0.6-0.4,0.8-0.6c0.2-0.3,0.3-0.6,0.4-1c0.1-0.4,0.1-0.8,0.1-1.2v-3.9h1.3V155z"/>
		<path class="st0" d="M40,150.8c0-0.4,0-0.7,0-1c0-0.3,0-0.6,0-0.9h1.3c0,0.2,0,0.4,0,0.6c0,0.2,0,0.4,0,0.7h0
			c0.1-0.2,0.2-0.4,0.4-0.6c0.2-0.2,0.4-0.3,0.6-0.5s0.5-0.3,0.8-0.3s0.6-0.1,0.9-0.1c0.1,0,0.2,0,0.3,0c0.1,0,0.2,0,0.3,0.1
			l-0.1,1.3c-0.2-0.1-0.5-0.1-0.7-0.1c-0.8,0-1.4,0.3-1.8,0.8c-0.4,0.5-0.6,1.2-0.6,2.2v3.9H40V150.8z"/>
		<path class="st0" d="M51.5,148.9h1.3v1.2h0c0.4-0.4,0.8-0.8,1.3-1c0.5-0.2,1-0.4,1.6-0.4c0.6,0,1.2,0.1,1.7,0.3
			c0.5,0.2,1,0.5,1.3,0.9c0.4,0.4,0.6,0.8,0.9,1.3c0.2,0.5,0.3,1.1,0.3,1.7s-0.1,1.2-0.3,1.7c-0.2,0.5-0.5,1-0.8,1.3
			s-0.8,0.7-1.3,0.9c-0.5,0.2-1,0.3-1.6,0.3c-0.7,0-1.3-0.2-1.9-0.5c-0.5-0.3-0.9-0.7-1.2-1.1h0v5.3h-1.3V148.9z M52.8,152.9
			c0,0.4,0.1,0.8,0.2,1.2s0.3,0.7,0.6,0.9c0.2,0.3,0.5,0.5,0.9,0.6c0.3,0.2,0.7,0.2,1.2,0.2s0.8-0.1,1.2-0.2
			c0.3-0.2,0.6-0.4,0.9-0.6c0.2-0.3,0.4-0.6,0.6-0.9s0.2-0.7,0.2-1.2c0-0.4-0.1-0.8-0.2-1.2c-0.1-0.4-0.3-0.7-0.6-0.9
			c-0.2-0.3-0.5-0.5-0.9-0.6c-0.3-0.2-0.7-0.2-1.2-0.2s-0.8,0.1-1.2,0.2c-0.3,0.2-0.6,0.4-0.9,0.6c-0.2,0.3-0.4,0.6-0.6,0.9
			C52.9,152.1,52.8,152.4,52.8,152.9z"/>
		<path class="st0" d="M69.3,155c0,0.4,0,0.7,0,1c0,0.3,0,0.6,0,0.9h-1.3c0-0.2,0-0.4,0-0.6c0-0.2,0-0.4,0-0.7h0
			c-0.1,0.2-0.2,0.4-0.4,0.6c-0.2,0.2-0.4,0.3-0.6,0.5s-0.5,0.3-0.8,0.3c-0.3,0.1-0.6,0.1-0.9,0.1c-0.5,0-1-0.1-1.4-0.2
			c-0.4-0.2-0.7-0.4-0.9-0.7c-0.2-0.3-0.4-0.6-0.6-1s-0.2-0.8-0.2-1.3v-4.9h1.3v4.8c0,0.7,0.1,1.2,0.4,1.6c0.3,0.4,0.8,0.6,1.4,0.6
			c0.4,0,0.8-0.1,1.1-0.2c0.3-0.1,0.6-0.4,0.8-0.6c0.2-0.3,0.3-0.6,0.4-1c0.1-0.4,0.1-0.8,0.1-1.2v-3.9h1.3V155z"/>
		<path class="st0" d="M72.2,150.8c0-0.4,0-0.7,0-1c0-0.3,0-0.6,0-0.9h1.3c0,0.2,0,0.4,0,0.6c0,0.2,0,0.4,0,0.7h0
			c0.1-0.2,0.2-0.4,0.4-0.6c0.2-0.2,0.4-0.3,0.6-0.5s0.5-0.3,0.8-0.3s0.6-0.1,0.9-0.1c0.1,0,0.2,0,0.3,0c0.1,0,0.2,0,0.3,0.1
			l-0.1,1.3c-0.2-0.1-0.5-0.1-0.7-0.1c-0.8,0-1.4,0.3-1.8,0.8c-0.4,0.5-0.6,1.2-0.6,2.2v3.9h-1.3V150.8z"/>
		<path class="st0" d="M78.8,154.7c0.3,0.3,0.5,0.6,0.9,0.8c0.3,0.2,0.7,0.3,1.2,0.3c0.2,0,0.4,0,0.6-0.1c0.2,0,0.4-0.1,0.6-0.2
			c0.2-0.1,0.3-0.2,0.4-0.4s0.2-0.3,0.2-0.6c0-0.2,0-0.4-0.1-0.5c-0.1-0.1-0.2-0.3-0.4-0.3c-0.2-0.1-0.3-0.2-0.5-0.2
			s-0.4-0.1-0.6-0.2c-0.4-0.1-0.7-0.2-1.1-0.3c-0.3-0.1-0.6-0.2-0.9-0.4c-0.3-0.2-0.5-0.4-0.6-0.6c-0.2-0.3-0.2-0.6-0.2-1
			c0-0.4,0.1-0.7,0.3-1c0.2-0.3,0.4-0.5,0.7-0.7c0.3-0.2,0.6-0.3,1-0.4c0.4-0.1,0.7-0.2,1.1-0.2c0.6,0,1.1,0.1,1.6,0.3
			c0.5,0.2,0.9,0.6,1.1,1.1l-1.1,0.7c-0.2-0.3-0.4-0.5-0.7-0.7c-0.3-0.2-0.6-0.3-1-0.3c-0.2,0-0.4,0-0.6,0.1c-0.2,0-0.4,0.1-0.5,0.2
			s-0.3,0.2-0.4,0.3c-0.1,0.1-0.1,0.3-0.1,0.5c0,0.2,0.1,0.3,0.2,0.4c0.1,0.1,0.3,0.2,0.4,0.3s0.4,0.2,0.6,0.2
			c0.2,0.1,0.5,0.1,0.8,0.2c0.4,0.1,0.7,0.2,1,0.3c0.3,0.1,0.6,0.3,0.8,0.4c0.2,0.2,0.4,0.4,0.6,0.7c0.1,0.3,0.2,0.6,0.2,1
			c0,0.5-0.1,0.8-0.3,1.2c-0.2,0.3-0.4,0.6-0.7,0.8s-0.6,0.3-1,0.4c-0.4,0.1-0.8,0.1-1.2,0.1c-0.7,0-1.3-0.1-1.8-0.3
			c-0.5-0.2-0.9-0.6-1.3-1.2L78.8,154.7z"/>
		<path class="st0" d="M93.3,155c0,0.4,0,0.7,0,1c0,0.3,0,0.6,0,0.9h-1.3c0-0.2,0-0.4,0-0.6c0-0.2,0-0.4,0-0.7h0
			c-0.1,0.2-0.2,0.4-0.4,0.6c-0.2,0.2-0.4,0.3-0.6,0.5s-0.5,0.3-0.8,0.3c-0.3,0.1-0.6,0.1-0.9,0.1c-0.5,0-1-0.1-1.4-0.2
			c-0.4-0.2-0.7-0.4-0.9-0.7c-0.2-0.3-0.4-0.6-0.6-1s-0.2-0.8-0.2-1.3v-4.9h1.3v4.8c0,0.7,0.1,1.2,0.4,1.6c0.3,0.4,0.8,0.6,1.4,0.6
			c0.4,0,0.8-0.1,1.1-0.2c0.3-0.1,0.6-0.4,0.8-0.6c0.2-0.3,0.3-0.6,0.4-1c0.1-0.4,0.1-0.8,0.1-1.2v-3.9h1.3V155z"/>
		<path class="st0" d="M96,145.8c0-0.3,0.1-0.5,0.3-0.7c0.2-0.2,0.4-0.3,0.7-0.3s0.5,0.1,0.7,0.3c0.2,0.2,0.3,0.4,0.3,0.7
			c0,0.3-0.1,0.5-0.3,0.7c-0.2,0.2-0.4,0.3-0.7,0.3c-0.3,0-0.5-0.1-0.7-0.3C96.1,146.3,96,146.1,96,145.8z M96.3,148.9h1.3v8h-1.3
			V148.9z"/>
		<path class="st0" d="M105,150h-2.3v4c0,0.3,0,0.5,0,0.7c0,0.2,0.1,0.4,0.1,0.6c0.1,0.2,0.2,0.3,0.4,0.4c0.2,0.1,0.4,0.1,0.7,0.1
			c0.2,0,0.4,0,0.6-0.1c0.2,0,0.4-0.1,0.6-0.2l0.1,1.2c-0.2,0.1-0.5,0.2-0.8,0.2c-0.3,0-0.5,0.1-0.8,0.1c-0.5,0-0.9-0.1-1.1-0.2
			c-0.3-0.1-0.5-0.3-0.7-0.5c-0.2-0.2-0.3-0.5-0.3-0.8c-0.1-0.3-0.1-0.7-0.1-1.1V150h-1.7v-1.1h1.7v-2.3h1.3v2.3h2.3V150z"/>
		<path class="st0" d="M111.8,152.9c0-0.6,0.1-1.2,0.3-1.7c0.2-0.5,0.5-0.9,0.9-1.3s0.8-0.7,1.3-0.9c0.5-0.2,1.1-0.3,1.7-0.3
			c0.6,0,1.2,0.1,1.7,0.3c0.5,0.2,1,0.5,1.3,0.9s0.7,0.8,0.9,1.3c0.2,0.5,0.3,1.1,0.3,1.7c0,0.6-0.1,1.2-0.3,1.7
			c-0.2,0.5-0.5,0.9-0.9,1.3c-0.4,0.4-0.8,0.7-1.3,0.9c-0.5,0.2-1.1,0.3-1.7,0.3c-0.6,0-1.2-0.1-1.7-0.3c-0.5-0.2-1-0.5-1.3-0.9
			c-0.4-0.4-0.7-0.8-0.9-1.3C111.9,154,111.8,153.5,111.8,152.9z M113.2,152.9c0,0.4,0.1,0.8,0.2,1.2s0.3,0.7,0.6,0.9
			c0.2,0.3,0.5,0.5,0.9,0.6c0.3,0.2,0.7,0.2,1.2,0.2s0.8-0.1,1.2-0.2c0.3-0.2,0.6-0.4,0.9-0.6c0.2-0.3,0.4-0.6,0.6-0.9
			s0.2-0.7,0.2-1.2c0-0.4-0.1-0.8-0.2-1.2c-0.1-0.4-0.3-0.7-0.6-0.9c-0.2-0.3-0.5-0.5-0.9-0.6c-0.3-0.2-0.7-0.2-1.2-0.2
			s-0.8,0.1-1.2,0.2c-0.3,0.2-0.6,0.4-0.9,0.6c-0.2,0.3-0.4,0.6-0.6,0.9C113.3,152.1,113.2,152.4,113.2,152.9z"/>
		<path class="st0" d="M123.5,150h-1.7v-1.1h1.7v-1.8c0-0.5,0-0.9,0.1-1.3c0.1-0.4,0.2-0.8,0.5-1s0.5-0.5,0.9-0.7s0.8-0.2,1.3-0.2
			c0.2,0,0.4,0,0.5,0.1c0.2,0,0.4,0.1,0.5,0.2l-0.2,1.2c-0.3-0.1-0.6-0.2-0.9-0.2c-0.3,0-0.6,0.1-0.8,0.2c-0.2,0.1-0.3,0.3-0.4,0.5
			s-0.2,0.5-0.2,0.8c0,0.3,0,0.6,0,1v1.5h1.9v1.1h-1.9v6.8h-1.3V150z"/>
		<path class="st0" d="M133.6,144h1.3v6.1h0c0.4-0.4,0.8-0.8,1.3-1c0.5-0.2,1-0.4,1.6-0.4c0.6,0,1.2,0.1,1.7,0.3
			c0.5,0.2,1,0.5,1.3,0.9c0.4,0.4,0.6,0.8,0.9,1.3c0.2,0.5,0.3,1.1,0.3,1.7s-0.1,1.2-0.3,1.7c-0.2,0.5-0.5,1-0.8,1.3
			s-0.8,0.7-1.3,0.9c-0.5,0.2-1,0.3-1.6,0.3c-0.7,0-1.3-0.2-1.9-0.5c-0.5-0.3-0.9-0.7-1.2-1.1h0v1.4h-1.3V144z M135,152.9
			c0,0.4,0.1,0.8,0.2,1.2s0.3,0.7,0.6,0.9c0.2,0.3,0.5,0.5,0.9,0.6c0.3,0.2,0.7,0.2,1.2,0.2s0.8-0.1,1.2-0.2
			c0.3-0.2,0.6-0.4,0.9-0.6c0.2-0.3,0.4-0.6,0.6-0.9s0.2-0.7,0.2-1.2c0-0.4-0.1-0.8-0.2-1.2c-0.1-0.4-0.3-0.7-0.6-0.9
			c-0.2-0.3-0.5-0.5-0.9-0.6c-0.3-0.2-0.7-0.2-1.2-0.2s-0.8,0.1-1.2,0.2c-0.3,0.2-0.6,0.4-0.9,0.6c-0.2,0.3-0.4,0.6-0.6,0.9
			C135,152.1,135,152.4,135,152.9z"/>
		<path class="st0" d="M151.6,155.4c-0.5,0.6-1,1-1.6,1.3c-0.6,0.2-1.2,0.4-2,0.4c-0.6,0-1.2-0.1-1.7-0.3c-0.5-0.2-0.9-0.5-1.3-0.9
			c-0.3-0.4-0.6-0.8-0.8-1.3c-0.2-0.5-0.3-1.1-0.3-1.6c0-0.6,0.1-1.2,0.3-1.7c0.2-0.5,0.5-1,0.9-1.3c0.4-0.4,0.8-0.7,1.3-0.9
			c0.5-0.2,1-0.3,1.6-0.3c0.6,0,1.1,0.1,1.5,0.3c0.5,0.2,0.9,0.5,1.2,0.8s0.6,0.8,0.8,1.3c0.2,0.5,0.3,1.1,0.3,1.8v0.4h-6.4
			c0,0.3,0.1,0.7,0.2,1c0.1,0.3,0.3,0.6,0.6,0.8s0.5,0.4,0.8,0.6c0.3,0.1,0.6,0.2,1,0.2c0.6,0,1.1-0.1,1.5-0.3
			c0.4-0.2,0.8-0.5,1.1-0.9L151.6,155.4z M150.5,152.1c0-0.7-0.2-1.2-0.7-1.6c-0.4-0.4-1-0.6-1.7-0.6c-0.7,0-1.3,0.2-1.8,0.6
			c-0.5,0.4-0.7,1-0.8,1.6H150.5z"/>
		<path class="st0" d="M158.7,150h-2.3v4c0,0.3,0,0.5,0,0.7c0,0.2,0.1,0.4,0.1,0.6c0.1,0.2,0.2,0.3,0.4,0.4c0.2,0.1,0.4,0.1,0.7,0.1
			c0.2,0,0.4,0,0.6-0.1c0.2,0,0.4-0.1,0.6-0.2l0.1,1.2c-0.2,0.1-0.5,0.2-0.8,0.2c-0.3,0-0.5,0.1-0.8,0.1c-0.5,0-0.9-0.1-1.1-0.2
			c-0.3-0.1-0.5-0.3-0.7-0.5c-0.2-0.2-0.3-0.5-0.3-0.8c-0.1-0.3-0.1-0.7-0.1-1.1V150h-1.7v-1.1h1.7v-2.3h1.3v2.3h2.3V150z"/>
		<path class="st0" d="M165.2,150h-2.3v4c0,0.3,0,0.5,0,0.7c0,0.2,0.1,0.4,0.1,0.6c0.1,0.2,0.2,0.3,0.4,0.4c0.2,0.1,0.4,0.1,0.7,0.1
			c0.2,0,0.4,0,0.6-0.1c0.2,0,0.4-0.1,0.6-0.2l0.1,1.2c-0.2,0.1-0.5,0.2-0.8,0.2c-0.3,0-0.5,0.1-0.8,0.1c-0.5,0-0.9-0.1-1.1-0.2
			c-0.3-0.1-0.5-0.3-0.7-0.5c-0.2-0.2-0.3-0.5-0.3-0.8c-0.1-0.3-0.1-0.7-0.1-1.1V150h-1.7v-1.1h1.7v-2.3h1.3v2.3h2.3V150z"/>
		<path class="st0" d="M174.3,155.4c-0.5,0.6-1,1-1.6,1.3c-0.6,0.2-1.2,0.4-2,0.4c-0.6,0-1.2-0.1-1.7-0.3c-0.5-0.2-0.9-0.5-1.3-0.9
			c-0.3-0.4-0.6-0.8-0.8-1.3c-0.2-0.5-0.3-1.1-0.3-1.6c0-0.6,0.1-1.2,0.3-1.7c0.2-0.5,0.5-1,0.9-1.3c0.4-0.4,0.8-0.7,1.3-0.9
			c0.5-0.2,1-0.3,1.6-0.3c0.6,0,1.1,0.1,1.5,0.3c0.5,0.2,0.9,0.5,1.2,0.8s0.6,0.8,0.8,1.3c0.2,0.5,0.3,1.1,0.3,1.8v0.4h-6.4
			c0,0.3,0.1,0.7,0.2,1c0.1,0.3,0.3,0.6,0.6,0.8s0.5,0.4,0.8,0.6c0.3,0.1,0.6,0.2,1,0.2c0.6,0,1.1-0.1,1.5-0.3
			c0.4-0.2,0.8-0.5,1.1-0.9L174.3,155.4z M173.2,152.1c0-0.7-0.2-1.2-0.7-1.6c-0.4-0.4-1-0.6-1.7-0.6c-0.7,0-1.3,0.2-1.8,0.6
			c-0.5,0.4-0.7,1-0.8,1.6H173.2z"/>
		<path class="st0" d="M177.1,150.8c0-0.4,0-0.7,0-1c0-0.3,0-0.6,0-0.9h1.3c0,0.2,0,0.4,0,0.6c0,0.2,0,0.4,0,0.7h0
			c0.1-0.2,0.2-0.4,0.4-0.6c0.2-0.2,0.4-0.3,0.6-0.5s0.5-0.3,0.8-0.3s0.6-0.1,0.9-0.1c0.1,0,0.2,0,0.3,0c0.1,0,0.2,0,0.3,0.1
			l-0.1,1.3c-0.2-0.1-0.5-0.1-0.7-0.1c-0.8,0-1.4,0.3-1.8,0.8c-0.4,0.5-0.6,1.2-0.6,2.2v3.9h-1.3V150.8z"/>
		<path class="st0" d="M182.9,159.2h-1.3l1.2-4.1h1.5L182.9,159.2z"/>
		<path class="st0" d="M192.9,150h-1.7v-1.1h1.7v-1.8c0-0.5,0-0.9,0.1-1.3c0.1-0.4,0.2-0.8,0.5-1s0.5-0.5,0.9-0.7s0.8-0.2,1.3-0.2
			c0.2,0,0.4,0,0.5,0.1c0.2,0,0.4,0.1,0.5,0.2l-0.2,1.2c-0.3-0.1-0.6-0.2-0.9-0.2c-0.3,0-0.6,0.1-0.8,0.2c-0.2,0.1-0.3,0.3-0.4,0.5
			s-0.2,0.5-0.2,0.8c0,0.3,0,0.6,0,1v1.5h1.9v1.1h-1.9v6.8h-1.3V150z"/>
		<path class="st0" d="M197.9,149.9c0.4-0.4,0.9-0.7,1.5-0.9s1.1-0.3,1.7-0.3c1.2,0,2,0.3,2.6,0.8c0.5,0.6,0.8,1.4,0.8,2.5v3.4
			c0,0.2,0,0.5,0,0.7c0,0.2,0.1,0.5,0.1,0.7h-1.3c0-0.2-0.1-0.4-0.1-0.6c0-0.2,0-0.4,0-0.6h0c-0.3,0.4-0.6,0.7-1,1
			c-0.4,0.3-1,0.4-1.6,0.4c-0.4,0-0.8-0.1-1.1-0.2c-0.4-0.1-0.7-0.3-0.9-0.5s-0.5-0.4-0.6-0.7c-0.2-0.3-0.2-0.6-0.2-1
			c0-0.7,0.2-1.2,0.5-1.5s0.8-0.7,1.3-0.8c0.5-0.2,1-0.3,1.6-0.3c0.6,0,1.1-0.1,1.6-0.1h0.5v-0.2c0-0.6-0.2-1-0.5-1.3
			c-0.3-0.3-0.8-0.4-1.5-0.4c-0.4,0-0.9,0.1-1.3,0.2s-0.8,0.4-1.1,0.7L197.9,149.9z M201.8,153c-0.9,0-1.5,0.1-2,0.4
			c-0.5,0.2-0.7,0.6-0.7,1.2c0,0.5,0.2,0.9,0.5,1.1c0.3,0.2,0.8,0.3,1.2,0.3c0.4,0,0.7-0.1,1-0.2c0.3-0.1,0.5-0.3,0.7-0.5
			s0.3-0.5,0.4-0.8s0.2-0.6,0.2-0.9V153H201.8z"/>
		<path class="st0" d="M207.4,154.7c0.3,0.3,0.5,0.6,0.9,0.8c0.3,0.2,0.7,0.3,1.2,0.3c0.2,0,0.4,0,0.6-0.1c0.2,0,0.4-0.1,0.6-0.2
			c0.2-0.1,0.3-0.2,0.4-0.4s0.2-0.3,0.2-0.6c0-0.2,0-0.4-0.1-0.5c-0.1-0.1-0.2-0.3-0.4-0.3c-0.2-0.1-0.3-0.2-0.5-0.2
			s-0.4-0.1-0.6-0.2c-0.4-0.1-0.7-0.2-1.1-0.3c-0.3-0.1-0.6-0.2-0.9-0.4c-0.3-0.2-0.5-0.4-0.6-0.6c-0.2-0.3-0.2-0.6-0.2-1
			c0-0.4,0.1-0.7,0.3-1c0.2-0.3,0.4-0.5,0.7-0.7c0.3-0.2,0.6-0.3,1-0.4c0.4-0.1,0.7-0.2,1.1-0.2c0.6,0,1.1,0.1,1.6,0.3
			c0.5,0.2,0.9,0.6,1.1,1.1l-1.1,0.7c-0.2-0.3-0.4-0.5-0.7-0.7c-0.3-0.2-0.6-0.3-1-0.3c-0.2,0-0.4,0-0.6,0.1c-0.2,0-0.4,0.1-0.5,0.2
			s-0.3,0.2-0.4,0.3c-0.1,0.1-0.1,0.3-0.1,0.5c0,0.2,0.1,0.3,0.2,0.4c0.1,0.1,0.3,0.2,0.4,0.3s0.4,0.2,0.6,0.2
			c0.2,0.1,0.5,0.1,0.8,0.2c0.4,0.1,0.7,0.2,1,0.3c0.3,0.1,0.6,0.3,0.8,0.4c0.2,0.2,0.4,0.4,0.6,0.7c0.1,0.3,0.2,0.6,0.2,1
			c0,0.5-0.1,0.8-0.3,1.2c-0.2,0.3-0.4,0.6-0.7,0.8s-0.6,0.3-1,0.4c-0.4,0.1-0.8,0.1-1.2,0.1c-0.7,0-1.3-0.1-1.8-0.3
			c-0.5-0.2-0.9-0.6-1.3-1.2L207.4,154.7z"/>
		<path class="st0" d="M219.3,150h-2.3v4c0,0.3,0,0.5,0,0.7c0,0.2,0.1,0.4,0.1,0.6c0.1,0.2,0.2,0.3,0.4,0.4c0.2,0.1,0.4,0.1,0.7,0.1
			c0.2,0,0.4,0,0.6-0.1c0.2,0,0.4-0.1,0.6-0.2l0.1,1.2c-0.2,0.1-0.5,0.2-0.8,0.2c-0.3,0-0.5,0.1-0.8,0.1c-0.5,0-0.9-0.1-1.1-0.2
			c-0.3-0.1-0.5-0.3-0.7-0.5c-0.2-0.2-0.3-0.5-0.3-0.8c-0.1-0.3-0.1-0.7-0.1-1.1V150h-1.7v-1.1h1.7v-2.3h1.3v2.3h2.3V150z"/>
		<path class="st0" d="M228.4,155.4c-0.5,0.6-1,1-1.6,1.3c-0.6,0.2-1.2,0.4-2,0.4c-0.6,0-1.2-0.1-1.7-0.3c-0.5-0.2-0.9-0.5-1.3-0.9
			c-0.3-0.4-0.6-0.8-0.8-1.3c-0.2-0.5-0.3-1.1-0.3-1.6c0-0.6,0.1-1.2,0.3-1.7c0.2-0.5,0.5-1,0.9-1.3c0.4-0.4,0.8-0.7,1.3-0.9
			c0.5-0.2,1-0.3,1.6-0.3c0.6,0,1.1,0.1,1.5,0.3c0.5,0.2,0.9,0.5,1.2,0.8s0.6,0.8,0.8,1.3c0.2,0.5,0.3,1.1,0.3,1.8v0.4h-6.4
			c0,0.3,0.1,0.7,0.2,1c0.1,0.3,0.3,0.6,0.6,0.8s0.5,0.4,0.8,0.6c0.3,0.1,0.6,0.2,1,0.2c0.6,0,1.1-0.1,1.5-0.3
			c0.4-0.2,0.8-0.5,1.1-0.9L228.4,155.4z M227.3,152.1c0-0.7-0.2-1.2-0.7-1.6c-0.4-0.4-1-0.6-1.7-0.6c-0.7,0-1.3,0.2-1.8,0.6
			c-0.5,0.4-0.7,1-0.8,1.6H227.3z"/>
		<path class="st0" d="M231.2,150.8c0-0.4,0-0.7,0-1c0-0.3,0-0.6,0-0.9h1.3c0,0.2,0,0.4,0,0.6c0,0.2,0,0.4,0,0.7h0
			c0.1-0.2,0.2-0.4,0.4-0.6c0.2-0.2,0.4-0.3,0.6-0.5s0.5-0.3,0.8-0.3s0.6-0.1,0.9-0.1c0.1,0,0.2,0,0.3,0c0.1,0,0.2,0,0.3,0.1
			l-0.1,1.3c-0.2-0.1-0.5-0.1-0.7-0.1c-0.8,0-1.4,0.3-1.8,0.8c-0.4,0.5-0.6,1.2-0.6,2.2v3.9h-1.3V150.8z"/>
		<path class="st0" d="M237,159.2h-1.3l1.2-4.1h1.5L237,159.2z"/>
		<path class="st0" d="M246.5,144h1.3v12.9h-1.3V144z"/>
		<path class="st0" d="M250.4,152.9c0-0.6,0.1-1.2,0.3-1.7c0.2-0.5,0.5-0.9,0.9-1.3s0.8-0.7,1.3-0.9c0.5-0.2,1.1-0.3,1.7-0.3
			c0.6,0,1.2,0.1,1.7,0.3c0.5,0.2,1,0.5,1.3,0.9s0.7,0.8,0.9,1.3c0.2,0.5,0.3,1.1,0.3,1.7c0,0.6-0.1,1.2-0.3,1.7
			c-0.2,0.5-0.5,0.9-0.9,1.3c-0.4,0.4-0.8,0.7-1.3,0.9c-0.5,0.2-1.1,0.3-1.7,0.3c-0.6,0-1.2-0.1-1.7-0.3c-0.5-0.2-1-0.5-1.3-0.9
			c-0.4-0.4-0.7-0.8-0.9-1.3C250.5,154,250.4,153.5,250.4,152.9z M251.8,152.9c0,0.4,0.1,0.8,0.2,1.2s0.3,0.7,0.6,0.9
			c0.2,0.3,0.5,0.5,0.9,0.6c0.3,0.2,0.7,0.2,1.2,0.2s0.8-0.1,1.2-0.2c0.3-0.2,0.6-0.4,0.9-0.6c0.2-0.3,0.4-0.6,0.6-0.9
			s0.2-0.7,0.2-1.2c0-0.4-0.1-0.8-0.2-1.2c-0.1-0.4-0.3-0.7-0.6-0.9c-0.2-0.3-0.5-0.5-0.9-0.6c-0.3-0.2-0.7-0.2-1.2-0.2
			s-0.8,0.1-1.2,0.2c-0.3,0.2-0.6,0.4-0.9,0.6c-0.2,0.3-0.4,0.6-0.6,0.9C251.9,152.1,251.8,152.4,251.8,152.9z"/>
		<path class="st0" d="M261.4,150.8c0-0.4,0-0.7,0-1s0-0.6,0-0.9h1.3c0,0.2,0,0.4,0,0.6c0,0.2,0,0.4,0,0.7h0
			c0.1-0.2,0.2-0.4,0.4-0.6c0.2-0.2,0.4-0.3,0.6-0.5c0.2-0.1,0.5-0.3,0.8-0.3s0.6-0.1,0.9-0.1c0.5,0,1,0.1,1.4,0.2s0.7,0.4,0.9,0.7
			s0.4,0.6,0.6,1s0.2,0.8,0.2,1.3v4.9H267v-4.8c0-0.7-0.1-1.2-0.4-1.6c-0.3-0.4-0.8-0.6-1.4-0.6c-0.4,0-0.8,0.1-1.1,0.2
			s-0.6,0.4-0.8,0.6c-0.2,0.3-0.3,0.6-0.4,1c-0.1,0.4-0.1,0.8-0.1,1.2v3.9h-1.3V150.8z"/>
		<path class="st0" d="M279.2,156.5c0,1.5-0.4,2.6-1.1,3.3c-0.7,0.8-1.8,1.1-3.2,1.1c-0.8,0-1.5-0.1-2.1-0.3
			c-0.6-0.2-1.2-0.6-1.8-1.2l1-1.1c0.4,0.5,0.9,0.8,1.3,1c0.5,0.2,1,0.3,1.6,0.3c0.6,0,1.1-0.1,1.5-0.3c0.4-0.2,0.7-0.4,0.9-0.7
			c0.2-0.3,0.4-0.6,0.5-1c0.1-0.4,0.1-0.8,0.1-1.2v-1h0c-0.3,0.5-0.7,0.9-1.2,1.1c-0.5,0.2-1,0.4-1.6,0.4c-0.6,0-1.2-0.1-1.7-0.3
			c-0.5-0.2-1-0.5-1.3-0.8c-0.4-0.4-0.7-0.8-0.9-1.3c-0.2-0.5-0.3-1-0.3-1.6c0-0.6,0.1-1.2,0.3-1.8c0.2-0.5,0.5-1,0.9-1.3
			c0.4-0.4,0.8-0.6,1.3-0.8c0.5-0.2,1.1-0.3,1.7-0.3c0.3,0,0.5,0,0.8,0.1c0.3,0.1,0.5,0.2,0.8,0.3s0.5,0.3,0.7,0.5s0.4,0.4,0.5,0.7
			h0v-1.4h1.3V156.5z M272.2,152.9c0,0.4,0.1,0.8,0.2,1.1c0.1,0.3,0.3,0.6,0.6,0.9s0.6,0.5,0.9,0.6c0.3,0.1,0.7,0.2,1.1,0.2
			c0.5,0,0.9-0.1,1.2-0.2c0.4-0.2,0.6-0.4,0.9-0.6c0.2-0.3,0.4-0.6,0.6-0.9c0.1-0.3,0.2-0.7,0.2-1.1c0-0.4-0.1-0.8-0.2-1.2
			c-0.1-0.4-0.3-0.7-0.6-0.9s-0.5-0.5-0.9-0.6c-0.4-0.1-0.7-0.2-1.2-0.2c-0.4,0-0.8,0.1-1.1,0.2c-0.3,0.2-0.6,0.4-0.9,0.6
			c-0.2,0.3-0.4,0.6-0.6,0.9C272.3,152.1,272.2,152.4,272.2,152.9z"/>
		<path class="st0" d="M289.2,155.4c-0.5,0.6-1,1-1.6,1.3c-0.6,0.2-1.2,0.4-2,0.4c-0.6,0-1.2-0.1-1.7-0.3c-0.5-0.2-0.9-0.5-1.3-0.9
			c-0.3-0.4-0.6-0.8-0.8-1.3c-0.2-0.5-0.3-1.1-0.3-1.6c0-0.6,0.1-1.2,0.3-1.7c0.2-0.5,0.5-1,0.8-1.3c0.4-0.4,0.8-0.7,1.3-0.9
			c0.5-0.2,1-0.3,1.6-0.3c0.6,0,1.1,0.1,1.5,0.3c0.5,0.2,0.9,0.5,1.2,0.8s0.6,0.8,0.8,1.3c0.2,0.5,0.3,1.1,0.3,1.8v0.4H283
			c0,0.3,0.1,0.7,0.2,1c0.1,0.3,0.3,0.6,0.6,0.8c0.2,0.2,0.5,0.4,0.8,0.6c0.3,0.1,0.6,0.2,1,0.2c0.6,0,1.1-0.1,1.5-0.3
			s0.8-0.5,1.1-0.9L289.2,155.4z M288,152.1c0-0.7-0.2-1.2-0.7-1.6c-0.4-0.4-1-0.6-1.7-0.6c-0.7,0-1.3,0.2-1.8,0.6s-0.7,1-0.8,1.6
			H288z"/>
		<path class="st0" d="M291.9,150.8c0-0.4,0-0.7,0-1s0-0.6,0-0.9h1.3c0,0.2,0,0.4,0,0.6c0,0.2,0,0.4,0,0.7h0
			c0.1-0.2,0.2-0.4,0.4-0.6c0.2-0.2,0.4-0.3,0.6-0.5c0.2-0.1,0.5-0.3,0.8-0.3s0.6-0.1,0.9-0.1c0.1,0,0.2,0,0.3,0
			c0.1,0,0.2,0,0.3,0.1l-0.1,1.3c-0.2-0.1-0.5-0.1-0.7-0.1c-0.8,0-1.4,0.3-1.8,0.8c-0.4,0.5-0.6,1.2-0.6,2.2v3.9h-1.3V150.8z"/>
		<path class="st0" d="M297.7,159.2h-1.3l1.2-4.1h1.5L297.7,159.2z"/>
		<path class="st0" d="M315.6,156.8h-1.3l-2.3-6.1h0l-2,6.1h-1.4l-2.6-8h1.5l1.8,6.1h0l2.1-6.1h1.4l2.1,6.1h0l1.8-6.1h1.4
			L315.6,156.8z"/>
		<path class="st0" d="M327.2,155.4c-0.5,0.6-1,1-1.6,1.3c-0.6,0.2-1.2,0.4-2,0.4c-0.6,0-1.2-0.1-1.7-0.3c-0.5-0.2-0.9-0.5-1.3-0.9
			c-0.3-0.4-0.6-0.8-0.8-1.3c-0.2-0.5-0.3-1.1-0.3-1.6c0-0.6,0.1-1.2,0.3-1.7c0.2-0.5,0.5-1,0.8-1.3c0.4-0.4,0.8-0.7,1.3-0.9
			c0.5-0.2,1-0.3,1.6-0.3c0.6,0,1.1,0.1,1.5,0.3c0.5,0.2,0.9,0.5,1.2,0.8s0.6,0.8,0.8,1.3c0.2,0.5,0.3,1.1,0.3,1.8v0.4H321
			c0,0.3,0.1,0.7,0.2,1c0.1,0.3,0.3,0.6,0.6,0.8c0.2,0.2,0.5,0.4,0.8,0.6c0.3,0.1,0.6,0.2,1,0.2c0.6,0,1.1-0.1,1.5-0.3
			s0.8-0.5,1.1-0.9L327.2,155.4z M326,152.1c0-0.7-0.2-1.2-0.7-1.6c-0.4-0.4-1-0.6-1.7-0.6c-0.7,0-1.3,0.2-1.8,0.6s-0.7,1-0.8,1.6
			H326z"/>
		<path class="st0" d="M335,149.9c0.4-0.4,0.9-0.7,1.5-0.9c0.6-0.2,1.1-0.3,1.7-0.3c1.2,0,2,0.3,2.5,0.8c0.5,0.6,0.8,1.4,0.8,2.5
			v3.4c0,0.2,0,0.5,0,0.7c0,0.2,0.1,0.5,0.1,0.7h-1.3c0-0.2-0.1-0.4-0.1-0.6c0-0.2,0-0.4,0-0.6h0c-0.3,0.4-0.6,0.7-1,1
			c-0.4,0.3-1,0.4-1.6,0.4c-0.4,0-0.8-0.1-1.1-0.2c-0.4-0.1-0.7-0.3-0.9-0.5c-0.3-0.2-0.5-0.4-0.6-0.7c-0.2-0.3-0.2-0.6-0.2-1
			c0-0.7,0.2-1.2,0.5-1.5c0.3-0.4,0.8-0.7,1.3-0.8c0.5-0.2,1-0.3,1.6-0.3c0.6,0,1.1-0.1,1.6-0.1h0.5v-0.2c0-0.6-0.2-1-0.5-1.3
			s-0.8-0.4-1.5-0.4c-0.4,0-0.9,0.1-1.3,0.2c-0.4,0.1-0.8,0.4-1.1,0.7L335,149.9z M338.8,153c-0.8,0-1.5,0.1-2,0.4
			c-0.5,0.2-0.7,0.6-0.7,1.2c0,0.5,0.2,0.9,0.5,1.1s0.8,0.3,1.2,0.3c0.4,0,0.7-0.1,1-0.2c0.3-0.1,0.5-0.3,0.7-0.5s0.3-0.5,0.4-0.8
			c0.1-0.3,0.2-0.6,0.2-0.9V153H338.8z"/>
		<path class="st0" d="M344.3,150.8c0-0.4,0-0.7,0-1s0-0.6,0-0.9h1.3c0,0.2,0,0.4,0,0.6c0,0.2,0,0.4,0,0.7h0
			c0.1-0.2,0.2-0.4,0.4-0.6c0.2-0.2,0.4-0.3,0.6-0.5c0.2-0.1,0.5-0.3,0.8-0.3s0.6-0.1,0.9-0.1c0.1,0,0.2,0,0.3,0
			c0.1,0,0.2,0,0.3,0.1l-0.1,1.3c-0.2-0.1-0.5-0.1-0.7-0.1c-0.8,0-1.4,0.3-1.8,0.8c-0.4,0.5-0.6,1.2-0.6,2.2v3.9h-1.3V150.8z"/>
		<path class="st0" d="M357.5,155.4c-0.5,0.6-1,1-1.6,1.3c-0.6,0.2-1.2,0.4-2,0.4c-0.6,0-1.2-0.1-1.7-0.3c-0.5-0.2-0.9-0.5-1.3-0.9
			c-0.3-0.4-0.6-0.8-0.8-1.3c-0.2-0.5-0.3-1.1-0.3-1.6c0-0.6,0.1-1.2,0.3-1.7c0.2-0.5,0.5-1,0.8-1.3c0.4-0.4,0.8-0.7,1.3-0.9
			c0.5-0.2,1-0.3,1.6-0.3c0.6,0,1.1,0.1,1.5,0.3c0.5,0.2,0.9,0.5,1.2,0.8s0.6,0.8,0.8,1.3c0.2,0.5,0.3,1.1,0.3,1.8v0.4h-6.4
			c0,0.3,0.1,0.7,0.2,1c0.1,0.3,0.3,0.6,0.6,0.8c0.2,0.2,0.5,0.4,0.8,0.6c0.3,0.1,0.6,0.2,1,0.2c0.6,0,1.1-0.1,1.5-0.3
			s0.8-0.5,1.1-0.9L357.5,155.4z M356.4,152.1c0-0.7-0.2-1.2-0.7-1.6c-0.4-0.4-1-0.6-1.7-0.6c-0.7,0-1.3,0.2-1.8,0.6s-0.7,1-0.8,1.6
			H356.4z"/>
		<path class="st0" d="M372.4,155c0,0.4,0,0.7,0,1c0,0.3,0,0.6,0,0.9h-1.3c0-0.2,0-0.4,0-0.6c0-0.2,0-0.4,0-0.7h0
			c-0.1,0.2-0.2,0.4-0.4,0.6c-0.2,0.2-0.4,0.3-0.6,0.5s-0.5,0.3-0.8,0.3s-0.6,0.1-0.9,0.1c-0.5,0-1-0.1-1.4-0.2
			c-0.4-0.2-0.7-0.4-0.9-0.7c-0.2-0.3-0.4-0.6-0.6-1s-0.2-0.8-0.2-1.3v-4.9h1.3v4.8c0,0.7,0.1,1.2,0.4,1.6c0.3,0.4,0.8,0.6,1.4,0.6
			c0.4,0,0.8-0.1,1.1-0.2c0.3-0.1,0.6-0.4,0.8-0.6c0.2-0.3,0.3-0.6,0.4-1c0.1-0.4,0.1-0.8,0.1-1.2v-3.9h1.3V155z"/>
		<path class="st0" d="M375.2,148.9h1.3v1.2h0c0.4-0.4,0.8-0.8,1.3-1c0.5-0.2,1-0.4,1.6-0.4c0.6,0,1.2,0.1,1.7,0.3
			c0.5,0.2,1,0.5,1.3,0.9c0.4,0.4,0.6,0.8,0.9,1.3c0.2,0.5,0.3,1.1,0.3,1.7s-0.1,1.2-0.3,1.7c-0.2,0.5-0.5,1-0.8,1.3
			c-0.4,0.4-0.8,0.7-1.3,0.9c-0.5,0.2-1,0.3-1.6,0.3c-0.7,0-1.3-0.2-1.9-0.5s-0.9-0.7-1.2-1.1h0v5.3h-1.3V148.9z M376.6,152.9
			c0,0.4,0.1,0.8,0.2,1.2c0.1,0.4,0.3,0.7,0.6,0.9c0.2,0.3,0.5,0.5,0.9,0.6c0.3,0.2,0.7,0.2,1.2,0.2s0.8-0.1,1.2-0.2
			c0.3-0.2,0.6-0.4,0.9-0.6c0.2-0.3,0.4-0.6,0.6-0.9c0.1-0.4,0.2-0.7,0.2-1.2c0-0.4-0.1-0.8-0.2-1.2c-0.1-0.4-0.3-0.7-0.6-0.9
			c-0.2-0.3-0.5-0.5-0.9-0.6c-0.3-0.2-0.7-0.2-1.2-0.2s-0.8,0.1-1.2,0.2c-0.3,0.2-0.6,0.4-0.9,0.6c-0.2,0.3-0.4,0.6-0.6,0.9
			C376.6,152.1,376.6,152.4,376.6,152.9z"/>
		<path class="st0" d="M394.1,156.5c0,1.5-0.4,2.6-1.1,3.3c-0.7,0.8-1.8,1.1-3.2,1.1c-0.8,0-1.5-0.1-2.1-0.3
			c-0.6-0.2-1.2-0.6-1.8-1.2l1-1.1c0.4,0.5,0.9,0.8,1.3,1c0.5,0.2,1,0.3,1.6,0.3c0.6,0,1.1-0.1,1.5-0.3c0.4-0.2,0.7-0.4,0.9-0.7
			c0.2-0.3,0.4-0.6,0.5-1c0.1-0.4,0.1-0.8,0.1-1.2v-1h0c-0.3,0.5-0.7,0.9-1.2,1.1c-0.5,0.2-1,0.4-1.6,0.4c-0.6,0-1.2-0.1-1.7-0.3
			c-0.5-0.2-1-0.5-1.3-0.8c-0.4-0.4-0.7-0.8-0.9-1.3c-0.2-0.5-0.3-1-0.3-1.6c0-0.6,0.1-1.2,0.3-1.8c0.2-0.5,0.5-1,0.9-1.3
			c0.4-0.4,0.8-0.6,1.3-0.8c0.5-0.2,1.1-0.3,1.7-0.3c0.3,0,0.5,0,0.8,0.1c0.3,0.1,0.5,0.2,0.8,0.3s0.5,0.3,0.7,0.5s0.4,0.4,0.5,0.7
			h0v-1.4h1.3V156.5z M387.1,152.9c0,0.4,0.1,0.8,0.2,1.1c0.1,0.3,0.3,0.6,0.6,0.9s0.6,0.5,0.9,0.6c0.3,0.1,0.7,0.2,1.1,0.2
			c0.5,0,0.9-0.1,1.2-0.2c0.4-0.2,0.6-0.4,0.9-0.6c0.2-0.3,0.4-0.6,0.6-0.9c0.1-0.3,0.2-0.7,0.2-1.1c0-0.4-0.1-0.8-0.2-1.2
			c-0.1-0.4-0.3-0.7-0.6-0.9s-0.5-0.5-0.9-0.6c-0.4-0.1-0.7-0.2-1.2-0.2c-0.4,0-0.8,0.1-1.1,0.2c-0.3,0.2-0.6,0.4-0.9,0.6
			c-0.2,0.3-0.4,0.6-0.6,0.9C387.2,152.1,387.1,152.4,387.1,152.9z"/>
		<path class="st0" d="M396.9,150.8c0-0.4,0-0.7,0-1s0-0.6,0-0.9h1.3c0,0.2,0,0.4,0,0.6c0,0.2,0,0.4,0,0.7h0
			c0.1-0.2,0.2-0.4,0.4-0.6c0.2-0.2,0.4-0.3,0.6-0.5c0.2-0.1,0.5-0.3,0.8-0.3s0.6-0.1,0.9-0.1c0.1,0,0.2,0,0.3,0
			c0.1,0,0.2,0,0.3,0.1l-0.1,1.3c-0.2-0.1-0.5-0.1-0.7-0.1c-0.8,0-1.4,0.3-1.8,0.8c-0.4,0.5-0.6,1.2-0.6,2.2v3.9h-1.3V150.8z"/>
		<path class="st0" d="M403.2,149.9c0.4-0.4,0.9-0.7,1.5-0.9c0.6-0.2,1.1-0.3,1.7-0.3c1.2,0,2,0.3,2.5,0.8c0.5,0.6,0.8,1.4,0.8,2.5
			v3.4c0,0.2,0,0.5,0,0.7c0,0.2,0.1,0.5,0.1,0.7h-1.3c0-0.2-0.1-0.4-0.1-0.6c0-0.2,0-0.4,0-0.6h0c-0.3,0.4-0.6,0.7-1,1
			c-0.4,0.3-1,0.4-1.6,0.4c-0.4,0-0.8-0.1-1.1-0.2c-0.4-0.1-0.7-0.3-0.9-0.5c-0.3-0.2-0.5-0.4-0.6-0.7c-0.2-0.3-0.2-0.6-0.2-1
			c0-0.7,0.2-1.2,0.5-1.5c0.3-0.4,0.8-0.7,1.3-0.8c0.5-0.2,1-0.3,1.6-0.3c0.6,0,1.1-0.1,1.6-0.1h0.5v-0.2c0-0.6-0.2-1-0.5-1.3
			s-0.8-0.4-1.5-0.4c-0.4,0-0.9,0.1-1.3,0.2c-0.4,0.1-0.8,0.4-1.1,0.7L403.2,149.9z M407.1,153c-0.8,0-1.5,0.1-2,0.4
			c-0.5,0.2-0.7,0.6-0.7,1.2c0,0.5,0.2,0.9,0.5,1.1s0.8,0.3,1.2,0.3c0.4,0,0.7-0.1,1-0.2c0.3-0.1,0.5-0.3,0.7-0.5s0.3-0.5,0.4-0.8
			c0.1-0.3,0.2-0.6,0.2-0.9V153H407.1z"/>
		<path class="st0" d="M419.2,155.4L419.2,155.4c-0.3,0.5-0.7,0.8-1.2,1.1s-1.2,0.5-1.9,0.5c-0.6,0-1.1-0.1-1.6-0.3
			c-0.5-0.2-0.9-0.5-1.3-0.9c-0.4-0.4-0.6-0.8-0.8-1.3c-0.2-0.5-0.3-1.1-0.3-1.7s0.1-1.2,0.3-1.7c0.2-0.5,0.5-1,0.8-1.3
			c0.4-0.4,0.8-0.7,1.3-0.9c0.5-0.2,1.1-0.3,1.7-0.3c0.6,0,1.1,0.1,1.6,0.4c0.5,0.2,0.9,0.6,1.3,1h0V144h1.3v12.9h-1.3V155.4z
			 M419.2,152.9c0-0.4-0.1-0.8-0.2-1.2c-0.1-0.4-0.3-0.7-0.6-0.9c-0.2-0.3-0.5-0.5-0.9-0.6c-0.3-0.2-0.7-0.2-1.2-0.2
			s-0.8,0.1-1.2,0.2c-0.3,0.2-0.6,0.4-0.9,0.6c-0.2,0.3-0.4,0.6-0.6,0.9c-0.1,0.4-0.2,0.7-0.2,1.2c0,0.4,0.1,0.8,0.2,1.2
			c0.1,0.4,0.3,0.7,0.6,0.9c0.2,0.3,0.5,0.5,0.9,0.6c0.3,0.2,0.7,0.2,1.2,0.2s0.8-0.1,1.2-0.2c0.3-0.2,0.6-0.4,0.9-0.6
			c0.2-0.3,0.4-0.6,0.6-0.9C419.1,153.7,419.2,153.3,419.2,152.9z"/>
		<path class="st0" d="M423.2,145.8c0-0.3,0.1-0.5,0.3-0.7c0.2-0.2,0.4-0.3,0.7-0.3c0.3,0,0.5,0.1,0.7,0.3c0.2,0.2,0.3,0.4,0.3,0.7
			c0,0.3-0.1,0.5-0.3,0.7c-0.2,0.2-0.4,0.3-0.7,0.3s-0.5-0.1-0.7-0.3C423.3,146.3,423.2,146.1,423.2,145.8z M423.5,148.9h1.3v8h-1.3
			V148.9z"/>
		<path class="st0" d="M427.9,150.8c0-0.4,0-0.7,0-1s0-0.6,0-0.9h1.3c0,0.2,0,0.4,0,0.6c0,0.2,0,0.4,0,0.7h0
			c0.1-0.2,0.2-0.4,0.4-0.6c0.2-0.2,0.4-0.3,0.6-0.5c0.2-0.1,0.5-0.3,0.8-0.3s0.6-0.1,0.9-0.1c0.5,0,1,0.1,1.4,0.2s0.7,0.4,0.9,0.7
			s0.4,0.6,0.6,1s0.2,0.8,0.2,1.3v4.9h-1.3v-4.8c0-0.7-0.1-1.2-0.4-1.6c-0.3-0.4-0.8-0.6-1.4-0.6c-0.4,0-0.8,0.1-1.1,0.2
			s-0.6,0.4-0.8,0.6c-0.2,0.3-0.3,0.6-0.4,1c-0.1,0.4-0.1,0.8-0.1,1.2v3.9h-1.3V150.8z"/>
		<path class="st0" d="M445.7,156.5c0,1.5-0.4,2.6-1.1,3.3c-0.7,0.8-1.8,1.1-3.2,1.1c-0.8,0-1.5-0.1-2.1-0.3
			c-0.6-0.2-1.2-0.6-1.8-1.2l1-1.1c0.4,0.5,0.9,0.8,1.3,1c0.5,0.2,1,0.3,1.6,0.3c0.6,0,1.1-0.1,1.5-0.3c0.4-0.2,0.7-0.4,0.9-0.7
			c0.2-0.3,0.4-0.6,0.5-1c0.1-0.4,0.1-0.8,0.1-1.2v-1h0c-0.3,0.5-0.7,0.9-1.2,1.1c-0.5,0.2-1,0.4-1.6,0.4c-0.6,0-1.2-0.1-1.7-0.3
			c-0.5-0.2-1-0.5-1.3-0.8c-0.4-0.4-0.7-0.8-0.9-1.3c-0.2-0.5-0.3-1-0.3-1.6c0-0.6,0.1-1.2,0.3-1.8c0.2-0.5,0.5-1,0.9-1.3
			c0.4-0.4,0.8-0.6,1.3-0.8c0.5-0.2,1.1-0.3,1.7-0.3c0.3,0,0.5,0,0.8,0.1c0.3,0.1,0.5,0.2,0.8,0.3s0.5,0.3,0.7,0.5s0.4,0.4,0.5,0.7
			h0v-1.4h1.3V156.5z M438.7,152.9c0,0.4,0.1,0.8,0.2,1.1c0.1,0.3,0.3,0.6,0.6,0.9s0.6,0.5,0.9,0.6c0.3,0.1,0.7,0.2,1.1,0.2
			c0.5,0,0.9-0.1,1.2-0.2c0.4-0.2,0.6-0.4,0.9-0.6c0.2-0.3,0.4-0.6,0.6-0.9c0.1-0.3,0.2-0.7,0.2-1.1c0-0.4-0.1-0.8-0.2-1.2
			c-0.1-0.4-0.3-0.7-0.6-0.9s-0.5-0.5-0.9-0.6c-0.4-0.1-0.7-0.2-1.2-0.2c-0.4,0-0.8,0.1-1.1,0.2c-0.3,0.2-0.6,0.4-0.9,0.6
			c-0.2,0.3-0.4,0.6-0.6,0.9C438.8,152.1,438.7,152.4,438.7,152.9z"/>
		<path class="st0" d="M453.2,152.9c0-0.6,0.1-1.2,0.3-1.7c0.2-0.5,0.5-0.9,0.9-1.3s0.8-0.7,1.3-0.9c0.5-0.2,1.1-0.3,1.7-0.3
			s1.2,0.1,1.7,0.3c0.5,0.2,1,0.5,1.3,0.9s0.7,0.8,0.9,1.3c0.2,0.5,0.3,1.1,0.3,1.7c0,0.6-0.1,1.2-0.3,1.7c-0.2,0.5-0.5,0.9-0.9,1.3
			c-0.4,0.4-0.8,0.7-1.3,0.9c-0.5,0.2-1.1,0.3-1.7,0.3s-1.2-0.1-1.7-0.3c-0.5-0.2-1-0.5-1.3-0.9c-0.4-0.4-0.7-0.8-0.9-1.3
			C453.4,154,453.2,153.5,453.2,152.9z M454.7,152.9c0,0.4,0.1,0.8,0.2,1.2c0.1,0.4,0.3,0.7,0.6,0.9c0.2,0.3,0.5,0.5,0.9,0.6
			c0.3,0.2,0.7,0.2,1.2,0.2s0.8-0.1,1.2-0.2c0.3-0.2,0.6-0.4,0.9-0.6c0.2-0.3,0.4-0.6,0.6-0.9c0.1-0.4,0.2-0.7,0.2-1.2
			c0-0.4-0.1-0.8-0.2-1.2c-0.1-0.4-0.3-0.7-0.6-0.9c-0.2-0.3-0.5-0.5-0.9-0.6c-0.3-0.2-0.7-0.2-1.2-0.2s-0.8,0.1-1.2,0.2
			c-0.3,0.2-0.6,0.4-0.9,0.6c-0.2,0.3-0.4,0.6-0.6,0.9C454.7,152.1,454.7,152.4,454.7,152.9z"/>
		<path class="st0" d="M471.2,155c0,0.4,0,0.7,0,1c0,0.3,0,0.6,0,0.9H470c0-0.2,0-0.4,0-0.6c0-0.2,0-0.4,0-0.7h0
			c-0.1,0.2-0.2,0.4-0.4,0.6c-0.2,0.2-0.4,0.3-0.6,0.5s-0.5,0.3-0.8,0.3s-0.6,0.1-0.9,0.1c-0.5,0-1-0.1-1.4-0.2
			c-0.4-0.2-0.7-0.4-0.9-0.7c-0.2-0.3-0.4-0.6-0.6-1s-0.2-0.8-0.2-1.3v-4.9h1.3v4.8c0,0.7,0.1,1.2,0.4,1.6c0.3,0.4,0.8,0.6,1.4,0.6
			c0.4,0,0.8-0.1,1.1-0.2c0.3-0.1,0.6-0.4,0.8-0.6c0.2-0.3,0.3-0.6,0.4-1c0.1-0.4,0.1-0.8,0.1-1.2v-3.9h1.3V155z"/>
		<path class="st0" d="M474.1,150.8c0-0.4,0-0.7,0-1s0-0.6,0-0.9h1.3c0,0.2,0,0.4,0,0.6c0,0.2,0,0.4,0,0.7h0
			c0.1-0.2,0.2-0.4,0.4-0.6c0.2-0.2,0.4-0.3,0.6-0.5c0.2-0.1,0.5-0.3,0.8-0.3s0.6-0.1,0.9-0.1c0.1,0,0.2,0,0.3,0
			c0.1,0,0.2,0,0.3,0.1l-0.1,1.3c-0.2-0.1-0.5-0.1-0.7-0.1c-0.8,0-1.4,0.3-1.8,0.8c-0.4,0.5-0.6,1.2-0.6,2.2v3.9h-1.3V150.8z"/>
		<path class="st0" d="M485.8,154.7c0.3,0.3,0.5,0.6,0.9,0.8c0.3,0.2,0.7,0.3,1.2,0.3c0.2,0,0.4,0,0.6-0.1c0.2,0,0.4-0.1,0.6-0.2
			c0.2-0.1,0.3-0.2,0.4-0.4c0.1-0.2,0.2-0.3,0.2-0.6c0-0.2,0-0.4-0.1-0.5c-0.1-0.1-0.2-0.3-0.4-0.3c-0.2-0.1-0.3-0.2-0.5-0.2
			c-0.2-0.1-0.4-0.1-0.6-0.2c-0.4-0.1-0.7-0.2-1.1-0.3c-0.3-0.1-0.6-0.2-0.9-0.4c-0.3-0.2-0.5-0.4-0.6-0.6s-0.2-0.6-0.2-1
			c0-0.4,0.1-0.7,0.3-1s0.4-0.5,0.7-0.7c0.3-0.2,0.6-0.3,1-0.4c0.4-0.1,0.7-0.2,1.1-0.2c0.6,0,1.1,0.1,1.6,0.3
			c0.5,0.2,0.9,0.6,1.1,1.1l-1.1,0.7c-0.2-0.3-0.4-0.5-0.7-0.7c-0.3-0.2-0.6-0.3-1-0.3c-0.2,0-0.4,0-0.6,0.1c-0.2,0-0.4,0.1-0.5,0.2
			s-0.3,0.2-0.4,0.3c-0.1,0.1-0.1,0.3-0.1,0.5c0,0.2,0.1,0.3,0.2,0.4s0.3,0.2,0.4,0.3c0.2,0.1,0.4,0.2,0.6,0.2
			c0.2,0.1,0.5,0.1,0.8,0.2c0.4,0.1,0.7,0.2,1,0.3c0.3,0.1,0.6,0.3,0.8,0.4c0.2,0.2,0.4,0.4,0.6,0.7c0.1,0.3,0.2,0.6,0.2,1
			c0,0.5-0.1,0.8-0.3,1.2s-0.4,0.6-0.7,0.8c-0.3,0.2-0.6,0.3-1,0.4c-0.4,0.1-0.8,0.1-1.2,0.1c-0.7,0-1.3-0.1-1.8-0.3
			c-0.5-0.2-0.9-0.6-1.3-1.2L485.8,154.7z"/>
		<path class="st0" d="M493.1,145.8c0-0.3,0.1-0.5,0.3-0.7c0.2-0.2,0.4-0.3,0.7-0.3c0.3,0,0.5,0.1,0.7,0.3c0.2,0.2,0.3,0.4,0.3,0.7
			c0,0.3-0.1,0.5-0.3,0.7c-0.2,0.2-0.4,0.3-0.7,0.3s-0.5-0.1-0.7-0.3C493.2,146.3,493.1,146.1,493.1,145.8z M493.4,148.9h1.3v8h-1.3
			V148.9z"/>
		<path class="st0" d="M502.2,150h-2.3v4c0,0.3,0,0.5,0,0.7c0,0.2,0.1,0.4,0.1,0.6c0.1,0.2,0.2,0.3,0.4,0.4c0.2,0.1,0.4,0.1,0.7,0.1
			c0.2,0,0.4,0,0.6-0.1s0.4-0.1,0.6-0.2l0.1,1.2c-0.2,0.1-0.5,0.2-0.8,0.2c-0.3,0-0.5,0.1-0.8,0.1c-0.5,0-0.9-0.1-1.1-0.2
			c-0.3-0.1-0.5-0.3-0.7-0.5c-0.2-0.2-0.3-0.5-0.3-0.8c-0.1-0.3-0.1-0.7-0.1-1.1V150h-1.7v-1.1h1.7v-2.3h1.3v2.3h2.3V150z"/>
		<path class="st0" d="M511.3,155.4c-0.5,0.6-1,1-1.6,1.3c-0.6,0.2-1.2,0.4-2,0.4c-0.6,0-1.2-0.1-1.7-0.3c-0.5-0.2-0.9-0.5-1.3-0.9
			c-0.3-0.4-0.6-0.8-0.8-1.3c-0.2-0.5-0.3-1.1-0.3-1.6c0-0.6,0.1-1.2,0.3-1.7c0.2-0.5,0.5-1,0.8-1.3c0.4-0.4,0.8-0.7,1.3-0.9
			c0.5-0.2,1-0.3,1.6-0.3c0.6,0,1.1,0.1,1.5,0.3c0.5,0.2,0.9,0.5,1.2,0.8s0.6,0.8,0.8,1.3c0.2,0.5,0.3,1.1,0.3,1.8v0.4h-6.4
			c0,0.3,0.1,0.7,0.2,1c0.1,0.3,0.3,0.6,0.6,0.8c0.2,0.2,0.5,0.4,0.8,0.6c0.3,0.1,0.6,0.2,1,0.2c0.6,0,1.1-0.1,1.5-0.3
			s0.8-0.5,1.1-0.9L511.3,155.4z M510.2,152.1c0-0.7-0.2-1.2-0.7-1.6c-0.4-0.4-1-0.6-1.7-0.6c-0.7,0-1.3,0.2-1.8,0.6s-0.7,1-0.8,1.6
			H510.2z"/>
		<path class="st0" d="M515.2,154.9c0.3,0,0.5,0.1,0.7,0.3c0.2,0.2,0.3,0.4,0.3,0.7s-0.1,0.5-0.3,0.7s-0.4,0.3-0.7,0.3
			s-0.5-0.1-0.7-0.3s-0.3-0.4-0.3-0.7s0.1-0.5,0.3-0.7S514.9,154.9,515.2,154.9z"/>
	</g>
	<g>
		<path class="st0" d="M94.3,209.1c0-0.3,0.1-0.5,0.3-0.7c0.2-0.2,0.4-0.3,0.7-0.3s0.5,0.1,0.7,0.3c0.2,0.2,0.3,0.4,0.3,0.7
			c0,0.3-0.1,0.5-0.3,0.7c-0.2,0.2-0.4,0.3-0.7,0.3c-0.3,0-0.5-0.1-0.7-0.3C94.4,209.6,94.3,209.4,94.3,209.1z M94.6,212.2h1.3v8
			h-1.3V212.2z"/>
		<path class="st0" d="M99,214.1c0-0.4,0-0.7,0-1c0-0.3,0-0.6,0-0.9h1.3c0,0.2,0,0.4,0,0.6c0,0.2,0,0.4,0,0.7h0
			c0.1-0.2,0.2-0.4,0.4-0.6c0.2-0.2,0.4-0.3,0.6-0.5s0.5-0.3,0.8-0.3s0.6-0.1,0.9-0.1c0.5,0,1,0.1,1.4,0.2c0.4,0.2,0.7,0.4,0.9,0.7
			c0.2,0.3,0.4,0.6,0.6,1c0.1,0.4,0.2,0.8,0.2,1.3v4.9h-1.3v-4.8c0-0.7-0.1-1.2-0.4-1.6c-0.3-0.4-0.8-0.6-1.4-0.6
			c-0.4,0-0.8,0.1-1.1,0.2c-0.3,0.1-0.6,0.4-0.8,0.6c-0.2,0.3-0.3,0.6-0.4,1c-0.1,0.4-0.1,0.8-0.1,1.2v3.9H99V214.1z"/>
		<path class="st0" d="M109.5,213.3h-1.7v-1.1h1.7v-1.8c0-0.5,0-0.9,0.1-1.3c0.1-0.4,0.2-0.8,0.5-1s0.5-0.5,0.9-0.7s0.8-0.2,1.3-0.2
			c0.2,0,0.4,0,0.5,0.1c0.2,0,0.4,0.1,0.5,0.2l-0.2,1.2c-0.3-0.1-0.6-0.2-0.9-0.2c-0.3,0-0.6,0.1-0.8,0.2c-0.2,0.1-0.3,0.3-0.4,0.5
			s-0.2,0.5-0.2,0.8c0,0.3,0,0.6,0,1v1.5h1.9v1.1h-1.9v6.8h-1.3V213.3z"/>
		<path class="st0" d="M114.2,216.2c0-0.6,0.1-1.2,0.3-1.7c0.2-0.5,0.5-0.9,0.9-1.3s0.8-0.7,1.3-0.9c0.5-0.2,1.1-0.3,1.7-0.3
			c0.6,0,1.2,0.1,1.7,0.3c0.5,0.2,1,0.5,1.3,0.9s0.7,0.8,0.9,1.3c0.2,0.5,0.3,1.1,0.3,1.7c0,0.6-0.1,1.2-0.3,1.7
			c-0.2,0.5-0.5,0.9-0.9,1.3c-0.4,0.4-0.8,0.7-1.3,0.9c-0.5,0.2-1.1,0.3-1.7,0.3c-0.6,0-1.2-0.1-1.7-0.3c-0.5-0.2-1-0.5-1.3-0.9
			c-0.4-0.4-0.7-0.8-0.9-1.3C114.3,217.4,114.2,216.8,114.2,216.2z M115.6,216.2c0,0.4,0.1,0.8,0.2,1.2s0.3,0.7,0.6,0.9
			c0.2,0.3,0.5,0.5,0.9,0.6c0.3,0.2,0.7,0.2,1.2,0.2s0.8-0.1,1.2-0.2c0.3-0.2,0.6-0.4,0.9-0.6c0.2-0.3,0.4-0.6,0.6-0.9
			s0.2-0.7,0.2-1.2c0-0.4-0.1-0.8-0.2-1.2c-0.1-0.4-0.3-0.7-0.6-0.9c-0.2-0.3-0.5-0.5-0.9-0.6c-0.3-0.2-0.7-0.2-1.2-0.2
			s-0.8,0.1-1.2,0.2c-0.3,0.2-0.6,0.4-0.9,0.6c-0.2,0.3-0.4,0.6-0.6,0.9C115.7,215.4,115.6,215.8,115.6,216.2z"/>
		<path class="st0" d="M133,215.6c0,0.1-0.1,0.3-0.1,0.4s0,0.3,0,0.4c0,0.2,0.1,0.3,0.4,0.3s0.5-0.1,0.8-0.3
			c0.3-0.2,0.5-0.5,0.8-0.8c0.2-0.3,0.4-0.7,0.6-1.2c0.1-0.4,0.2-0.9,0.2-1.4c0-0.7-0.1-1.3-0.4-1.8s-0.6-1-1-1.4s-0.9-0.7-1.5-0.9
			c-0.6-0.2-1.1-0.3-1.7-0.3c-0.7,0-1.4,0.1-2.1,0.4s-1.2,0.7-1.7,1.2c-0.5,0.5-0.8,1.1-1.1,1.7s-0.4,1.3-0.4,2.1
			c0,0.8,0.1,1.5,0.4,2.1s0.7,1.2,1.1,1.7s1,0.9,1.7,1.1c0.6,0.3,1.3,0.4,2,0.4c0.9,0,1.7-0.2,2.4-0.6c0.8-0.4,1.4-0.9,1.9-1.5h1.1
			c-0.3,0.5-0.6,0.9-1,1.2c-0.4,0.4-0.8,0.7-1.3,0.9c-0.5,0.3-1,0.5-1.5,0.6c-0.5,0.1-1.1,0.2-1.6,0.2c-0.9,0-1.7-0.2-2.5-0.5
			c-0.8-0.3-1.4-0.8-2-1.4s-1-1.2-1.4-2c-0.3-0.8-0.5-1.6-0.5-2.5c0-0.9,0.2-1.7,0.5-2.5c0.3-0.8,0.8-1.4,1.4-2c0.6-0.6,1.3-1,2-1.3
			c0.8-0.3,1.6-0.5,2.5-0.5c0.8,0,1.5,0.1,2.2,0.4c0.7,0.3,1.3,0.6,1.8,1.1s0.9,1,1.2,1.6s0.5,1.3,0.5,2.1c0,0.7-0.1,1.4-0.4,2
			c-0.3,0.6-0.6,1.1-1,1.5c-0.4,0.4-0.8,0.8-1.3,1c-0.5,0.2-0.9,0.4-1.3,0.4c-0.3,0-0.5-0.1-0.7-0.3c-0.2-0.2-0.3-0.5-0.3-0.8h0
			c-0.3,0.3-0.6,0.6-0.9,0.8c-0.3,0.2-0.7,0.3-1.2,0.3c-0.4,0-0.7-0.1-1-0.2c-0.3-0.1-0.5-0.3-0.8-0.6c-0.2-0.2-0.4-0.5-0.5-0.8
			s-0.2-0.7-0.2-1c0-0.6,0.1-1.2,0.3-1.8c0.2-0.6,0.5-1.1,0.8-1.5s0.8-0.8,1.2-1.1c0.5-0.3,1-0.4,1.6-0.4c0.4,0,0.8,0.1,1.1,0.3
			c0.3,0.2,0.6,0.6,0.8,1.1h0l0.3-1.1h1.1L133,215.6z M128.3,215.2c0,0.5,0.1,0.9,0.4,1.2c0.3,0.3,0.6,0.5,1.1,0.5
			c0.4,0,0.7-0.1,1-0.4c0.3-0.2,0.6-0.5,0.8-0.9c0.2-0.4,0.4-0.8,0.6-1.2c0.1-0.4,0.2-0.8,0.2-1.2c0-0.2,0-0.4-0.1-0.6
			c-0.1-0.2-0.2-0.4-0.3-0.5c-0.1-0.1-0.3-0.3-0.4-0.3c-0.2-0.1-0.3-0.1-0.5-0.1c-0.4,0-0.8,0.1-1.1,0.3c-0.3,0.2-0.6,0.5-0.9,0.9
			c-0.2,0.4-0.4,0.7-0.6,1.2C128.4,214.4,128.3,214.8,128.3,215.2z"/>
		<path class="st0" d="M139.1,213.2c0.4-0.4,0.9-0.7,1.5-0.9s1.1-0.3,1.7-0.3c1.2,0,2,0.3,2.6,0.8c0.5,0.6,0.8,1.4,0.8,2.5v3.4
			c0,0.2,0,0.5,0,0.7c0,0.2,0.1,0.5,0.1,0.7h-1.3c0-0.2-0.1-0.4-0.1-0.6c0-0.2,0-0.4,0-0.6h0c-0.3,0.4-0.6,0.7-1,1
			c-0.4,0.3-1,0.4-1.6,0.4c-0.4,0-0.8-0.1-1.1-0.2c-0.4-0.1-0.7-0.3-0.9-0.5s-0.5-0.4-0.6-0.7c-0.2-0.3-0.2-0.6-0.2-1
			c0-0.7,0.2-1.2,0.5-1.5s0.8-0.7,1.3-0.8c0.5-0.2,1-0.3,1.6-0.3c0.6,0,1.1-0.1,1.6-0.1h0.5V215c0-0.6-0.2-1-0.5-1.3
			c-0.3-0.3-0.8-0.4-1.5-0.4c-0.4,0-0.9,0.1-1.3,0.2s-0.8,0.4-1.1,0.7L139.1,213.2z M142.9,216.3c-0.9,0-1.5,0.1-2,0.4
			c-0.5,0.2-0.7,0.6-0.7,1.2c0,0.5,0.2,0.9,0.5,1.1c0.3,0.2,0.8,0.3,1.2,0.3c0.4,0,0.7-0.1,1-0.2c0.3-0.1,0.5-0.3,0.7-0.5
			s0.3-0.5,0.4-0.8s0.2-0.6,0.2-0.9v-0.5H142.9z"/>
		<path class="st0" d="M148.4,214.1c0-0.4,0-0.7,0-1c0-0.3,0-0.6,0-0.9h1.3c0,0.2,0,0.4,0,0.6c0,0.2,0,0.4,0,0.7h0
			c0.1-0.2,0.2-0.4,0.4-0.6c0.2-0.2,0.4-0.3,0.6-0.5s0.5-0.3,0.8-0.3s0.6-0.1,0.9-0.1c0.1,0,0.2,0,0.3,0c0.1,0,0.2,0,0.3,0.1
			l-0.1,1.3c-0.2-0.1-0.5-0.1-0.7-0.1c-0.8,0-1.4,0.3-1.8,0.8c-0.4,0.5-0.6,1.2-0.6,2.2v3.9h-1.3V214.1z"/>
		<path class="st0" d="M161.6,218.7c-0.5,0.6-1,1-1.6,1.3c-0.6,0.2-1.2,0.4-2,0.4c-0.6,0-1.2-0.1-1.7-0.3c-0.5-0.2-0.9-0.5-1.3-0.9
			c-0.3-0.4-0.6-0.8-0.8-1.3c-0.2-0.5-0.3-1.1-0.3-1.6c0-0.6,0.1-1.2,0.3-1.7c0.2-0.5,0.5-1,0.9-1.3c0.4-0.4,0.8-0.7,1.3-0.9
			c0.5-0.2,1-0.3,1.6-0.3c0.6,0,1.1,0.1,1.5,0.3c0.5,0.2,0.9,0.5,1.2,0.8s0.6,0.8,0.8,1.3c0.2,0.5,0.3,1.1,0.3,1.8v0.4h-6.4
			c0,0.3,0.1,0.7,0.2,1c0.1,0.3,0.3,0.6,0.6,0.8s0.5,0.4,0.8,0.6c0.3,0.1,0.6,0.2,1,0.2c0.6,0,1.1-0.1,1.5-0.3
			c0.4-0.2,0.8-0.5,1.1-0.9L161.6,218.7z M160.5,215.5c0-0.7-0.2-1.2-0.7-1.6c-0.4-0.4-1-0.6-1.7-0.6c-0.7,0-1.3,0.2-1.8,0.6
			c-0.5,0.4-0.7,1-0.8,1.6H160.5z"/>
		<path class="st0" d="M168.7,213.3h-2.3v4c0,0.3,0,0.5,0,0.7c0,0.2,0.1,0.4,0.1,0.6c0.1,0.2,0.2,0.3,0.4,0.4
			c0.2,0.1,0.4,0.1,0.7,0.1c0.2,0,0.4,0,0.6-0.1c0.2,0,0.4-0.1,0.6-0.2l0.1,1.2c-0.2,0.1-0.5,0.2-0.8,0.2c-0.3,0-0.5,0.1-0.8,0.1
			c-0.5,0-0.9-0.1-1.1-0.2c-0.3-0.1-0.5-0.3-0.7-0.5c-0.2-0.2-0.3-0.5-0.3-0.8c-0.1-0.3-0.1-0.7-0.1-1.1v-4.4h-1.7v-1.1h1.7v-2.3
			h1.3v2.3h2.3V213.3z"/>
		<path class="st0" d="M177.9,218.7c-0.5,0.6-1,1-1.6,1.3c-0.6,0.2-1.2,0.4-2,0.4c-0.6,0-1.2-0.1-1.7-0.3c-0.5-0.2-0.9-0.5-1.3-0.9
			c-0.3-0.4-0.6-0.8-0.8-1.3c-0.2-0.5-0.3-1.1-0.3-1.6c0-0.6,0.1-1.2,0.3-1.7c0.2-0.5,0.5-1,0.9-1.3c0.4-0.4,0.8-0.7,1.3-0.9
			c0.5-0.2,1-0.3,1.6-0.3c0.6,0,1.1,0.1,1.5,0.3c0.5,0.2,0.9,0.5,1.2,0.8s0.6,0.8,0.8,1.3c0.2,0.5,0.3,1.1,0.3,1.8v0.4h-6.4
			c0,0.3,0.1,0.7,0.2,1c0.1,0.3,0.3,0.6,0.6,0.8s0.5,0.4,0.8,0.6c0.3,0.1,0.6,0.2,1,0.2c0.6,0,1.1-0.1,1.5-0.3
			c0.4-0.2,0.8-0.5,1.1-0.9L177.9,218.7z M176.8,215.5c0-0.7-0.2-1.2-0.7-1.6c-0.4-0.4-1-0.6-1.7-0.6c-0.7,0-1.3,0.2-1.8,0.6
			c-0.5,0.4-0.7,1-0.8,1.6H176.8z"/>
		<path class="st0" d="M181.8,218.2c0.3,0,0.5,0.1,0.7,0.3s0.3,0.4,0.3,0.7s-0.1,0.5-0.3,0.7c-0.2,0.2-0.4,0.3-0.7,0.3
			s-0.5-0.1-0.7-0.3c-0.2-0.2-0.3-0.4-0.3-0.7s0.1-0.5,0.3-0.7C181.2,218.3,181.5,218.2,181.8,218.2z"/>
		<path class="st0" d="M191.5,214.2c-0.3-0.3-0.6-0.6-0.9-0.7c-0.3-0.2-0.7-0.2-1.1-0.2c-0.4,0-0.8,0.1-1.2,0.2
			c-0.3,0.2-0.6,0.4-0.8,0.6c-0.2,0.3-0.4,0.6-0.5,0.9c-0.1,0.4-0.2,0.7-0.2,1.1c0,0.4,0.1,0.8,0.2,1.1c0.1,0.4,0.3,0.7,0.5,0.9
			c0.2,0.3,0.5,0.5,0.8,0.6c0.3,0.2,0.7,0.2,1.1,0.2c0.9,0,1.5-0.3,2-1l1,0.9c-0.4,0.4-0.8,0.8-1.4,1c-0.5,0.2-1.1,0.3-1.6,0.3
			c-0.6,0-1.2-0.1-1.7-0.3c-0.5-0.2-0.9-0.5-1.3-0.9c-0.4-0.4-0.6-0.8-0.8-1.3c-0.2-0.5-0.3-1.1-0.3-1.7c0-0.6,0.1-1.2,0.3-1.7
			c0.2-0.5,0.5-1,0.8-1.3s0.8-0.7,1.3-0.9c0.5-0.2,1.1-0.3,1.7-0.3c0.6,0,1.1,0.1,1.7,0.3c0.5,0.2,1,0.5,1.4,1L191.5,214.2z"/>
		<path class="st0" d="M194,216.2c0-0.6,0.1-1.2,0.3-1.7c0.2-0.5,0.5-0.9,0.9-1.3s0.8-0.7,1.3-0.9c0.5-0.2,1.1-0.3,1.7-0.3
			c0.6,0,1.2,0.1,1.7,0.3c0.5,0.2,1,0.5,1.3,0.9s0.7,0.8,0.9,1.3c0.2,0.5,0.3,1.1,0.3,1.7c0,0.6-0.1,1.2-0.3,1.7
			c-0.2,0.5-0.5,0.9-0.9,1.3c-0.4,0.4-0.8,0.7-1.3,0.9c-0.5,0.2-1.1,0.3-1.7,0.3c-0.6,0-1.2-0.1-1.7-0.3c-0.5-0.2-1-0.5-1.3-0.9
			c-0.4-0.4-0.7-0.8-0.9-1.3C194.1,217.4,194,216.8,194,216.2z M195.4,216.2c0,0.4,0.1,0.8,0.2,1.2s0.3,0.7,0.6,0.9
			c0.2,0.3,0.5,0.5,0.9,0.6c0.3,0.2,0.7,0.2,1.2,0.2s0.8-0.1,1.2-0.2c0.3-0.2,0.6-0.4,0.9-0.6c0.2-0.3,0.4-0.6,0.6-0.9
			s0.2-0.7,0.2-1.2c0-0.4-0.1-0.8-0.2-1.2c-0.1-0.4-0.3-0.7-0.6-0.9c-0.2-0.3-0.5-0.5-0.9-0.6c-0.3-0.2-0.7-0.2-1.2-0.2
			s-0.8,0.1-1.2,0.2c-0.3,0.2-0.6,0.4-0.9,0.6c-0.2,0.3-0.4,0.6-0.6,0.9C195.5,215.4,195.4,215.8,195.4,216.2z"/>
		<path class="st0" d="M206,218.2c0.3,0,0.5,0.1,0.7,0.3s0.3,0.4,0.3,0.7s-0.1,0.5-0.3,0.7c-0.2,0.2-0.4,0.3-0.7,0.3
			s-0.5-0.1-0.7-0.3c-0.2-0.2-0.3-0.4-0.3-0.7s0.1-0.5,0.3-0.7C205.5,218.3,205.8,218.2,206,218.2z"/>
		<path class="st0" d="M217,218.3c0,0.4,0,0.7,0,1c0,0.3,0,0.6,0,0.9h-1.3c0-0.2,0-0.4,0-0.6c0-0.2,0-0.4,0-0.7h0
			c-0.1,0.2-0.2,0.4-0.4,0.6c-0.2,0.2-0.4,0.3-0.6,0.5s-0.5,0.3-0.8,0.3c-0.3,0.1-0.6,0.1-0.9,0.1c-0.5,0-1-0.1-1.4-0.2
			c-0.4-0.2-0.7-0.4-0.9-0.7c-0.2-0.3-0.4-0.6-0.6-1s-0.2-0.8-0.2-1.3v-4.9h1.3v4.8c0,0.7,0.1,1.2,0.4,1.6c0.3,0.4,0.8,0.6,1.4,0.6
			c0.4,0,0.8-0.1,1.1-0.2c0.3-0.1,0.6-0.4,0.8-0.6c0.2-0.3,0.3-0.6,0.4-1c0.1-0.4,0.1-0.8,0.1-1.2v-3.9h1.3V218.3z"/>
		<path class="st0" d="M220,207.3h1.3v8.4l3.6-3.5h1.9l-3.8,3.6l4.2,4.3h-2l-3.9-4.2v4.2H220V207.3z"/>
		<path class="st0" d="M245.5,207.4v17h-1.1v-17H245.5z"/>
		<path class="st0" d="M258.8,214.5h3.9v-3.9h1.1v3.9h3.9v1.1h-3.9v3.9h-1.1v-3.9h-3.9V214.5z"/>
		<path class="st0" d="M276.4,216.1h1.7v1.3h-1.7v2.8H275v-2.8h-5.1v-1.6l4.8-7.7h1.8V216.1z M275,209.8L275,209.8l-3.9,6.3h3.9
			V209.8z"/>
		<path class="st0" d="M286.3,216.1h1.7v1.3h-1.7v2.8h-1.4v-2.8h-5.1v-1.6l4.8-7.7h1.8V216.1z M284.9,209.8L284.9,209.8l-3.9,6.3
			h3.9V209.8z"/>
		<path class="st0" d="M297.6,222.8c-0.8-1.1-1.4-2.3-1.9-3.6c-0.4-1.3-0.6-2.6-0.6-3.9c0-1.4,0.2-2.7,0.7-4c0.4-1.3,1-2.5,1.8-3.5
			l0.9,0.7c-0.7,1-1.3,2.1-1.6,3.2c-0.4,1.2-0.5,2.4-0.5,3.6c0,0.7,0,1.3,0.1,1.9c0.1,0.6,0.2,1.2,0.4,1.7c0.2,0.5,0.4,1.1,0.7,1.6
			c0.3,0.5,0.6,1.1,1,1.7L297.6,222.8z"/>
		<path class="st0" d="M300,214.1c0-0.7,0.1-1.4,0.2-2.1c0.1-0.7,0.3-1.4,0.6-2c0.3-0.6,0.7-1.1,1.2-1.5c0.5-0.4,1.2-0.6,2-0.6
			s1.5,0.2,2,0.6c0.5,0.4,0.9,0.9,1.2,1.5c0.3,0.6,0.5,1.3,0.6,2c0.1,0.7,0.2,1.4,0.2,2.1c0,0.7-0.1,1.4-0.2,2.1
			c-0.1,0.7-0.3,1.4-0.6,2c-0.3,0.6-0.7,1.1-1.2,1.5c-0.5,0.4-1.2,0.6-2,0.6s-1.5-0.2-2-0.6c-0.5-0.4-0.9-0.9-1.2-1.5
			c-0.3-0.6-0.5-1.3-0.6-2C300,215.5,300,214.8,300,214.1z M301.4,214.1c0,0.3,0,0.6,0,1c0,0.4,0.1,0.7,0.1,1.1s0.2,0.7,0.3,1.1
			c0.1,0.4,0.3,0.7,0.5,0.9c0.2,0.3,0.4,0.5,0.7,0.7s0.6,0.2,1,0.2c0.4,0,0.7-0.1,1-0.2s0.5-0.4,0.7-0.7c0.2-0.3,0.4-0.6,0.5-0.9
			c0.1-0.4,0.2-0.7,0.3-1.1c0.1-0.4,0.1-0.7,0.1-1.1c0-0.4,0-0.7,0-1c0-0.3,0-0.6,0-1s-0.1-0.7-0.1-1.1c-0.1-0.4-0.2-0.7-0.3-1.1
			s-0.3-0.7-0.5-0.9c-0.2-0.3-0.4-0.5-0.7-0.7s-0.6-0.2-1-0.2c-0.4,0-0.7,0.1-1,0.2s-0.5,0.4-0.7,0.7c-0.2,0.3-0.4,0.6-0.5,0.9
			s-0.2,0.7-0.3,1.1s-0.1,0.7-0.1,1.1C301.4,213.5,301.4,213.9,301.4,214.1z"/>
		<path class="st0" d="M310.5,207.7c0.8,1.1,1.4,2.3,1.9,3.6c0.4,1.3,0.6,2.6,0.6,3.9c0,1.4-0.2,2.7-0.7,4c-0.4,1.3-1,2.5-1.8,3.5
			l-0.9-0.7c0.7-1,1.3-2.1,1.6-3.2c0.4-1.2,0.5-2.4,0.5-3.6c0-0.7,0-1.3-0.1-1.9s-0.2-1.2-0.4-1.7c-0.2-0.5-0.4-1.1-0.7-1.6
			c-0.3-0.5-0.6-1.1-1-1.7L310.5,207.7z"/>
		<path class="st0" d="M315.2,218.5l4.5-4.4c0.3-0.3,0.5-0.5,0.7-0.8c0.2-0.2,0.4-0.5,0.5-0.7c0.1-0.2,0.2-0.5,0.3-0.7
			c0.1-0.2,0.1-0.5,0.1-0.8c0-0.3-0.1-0.6-0.2-0.9c-0.1-0.2-0.3-0.5-0.5-0.6c-0.2-0.2-0.4-0.3-0.7-0.4c-0.3-0.1-0.6-0.1-0.9-0.1
			c-0.6,0-1.1,0.2-1.5,0.5c-0.4,0.4-0.7,0.8-0.8,1.4l-1.5-0.1c0.1-0.5,0.2-0.9,0.5-1.3s0.5-0.7,0.8-0.9c0.3-0.2,0.7-0.4,1.1-0.6
			c0.4-0.1,0.9-0.2,1.4-0.2c0.5,0,1,0.1,1.4,0.2c0.4,0.1,0.8,0.3,1.2,0.6c0.3,0.3,0.6,0.6,0.8,1s0.3,0.9,0.3,1.4
			c0,0.5-0.1,0.9-0.2,1.3c-0.1,0.4-0.3,0.7-0.5,1.1c-0.2,0.3-0.5,0.6-0.7,0.9c-0.3,0.3-0.6,0.6-0.9,0.9l-3.7,3.5v0h6.1v1.3h-7.8
			V218.5z"/>
		<path class="st0" d="M324.9,214.1c0-0.7,0.1-1.4,0.2-2.1c0.1-0.7,0.3-1.4,0.6-2c0.3-0.6,0.7-1.1,1.2-1.5c0.5-0.4,1.2-0.6,2-0.6
			s1.5,0.2,2,0.6c0.5,0.4,0.9,0.9,1.2,1.5c0.3,0.6,0.5,1.3,0.6,2c0.1,0.7,0.2,1.4,0.2,2.1c0,0.7-0.1,1.4-0.2,2.1
			c-0.1,0.7-0.3,1.4-0.6,2c-0.3,0.6-0.7,1.1-1.2,1.5c-0.5,0.4-1.2,0.6-2,0.6s-1.5-0.2-2-0.6c-0.5-0.4-0.9-0.9-1.2-1.5
			c-0.3-0.6-0.5-1.3-0.6-2C324.9,215.5,324.9,214.8,324.9,214.1z M326.3,214.1c0,0.3,0,0.6,0,1c0,0.4,0.1,0.7,0.1,1.1
			s0.2,0.7,0.3,1.1c0.1,0.4,0.3,0.7,0.5,0.9c0.2,0.3,0.4,0.5,0.7,0.7s0.6,0.2,1,0.2c0.4,0,0.7-0.1,1-0.2s0.5-0.4,0.7-0.7
			c0.2-0.3,0.4-0.6,0.5-0.9c0.1-0.4,0.2-0.7,0.3-1.1c0.1-0.4,0.1-0.7,0.1-1.1c0-0.4,0-0.7,0-1c0-0.3,0-0.6,0-1s-0.1-0.7-0.1-1.1
			c-0.1-0.4-0.2-0.7-0.3-1.1s-0.3-0.7-0.5-0.9c-0.2-0.3-0.4-0.5-0.7-0.7s-0.6-0.2-1-0.2c-0.4,0-0.7,0.1-1,0.2s-0.5,0.4-0.7,0.7
			c-0.2,0.3-0.4,0.6-0.5,0.9s-0.2,0.7-0.3,1.1s-0.1,0.7-0.1,1.1C326.3,213.5,326.3,213.9,326.3,214.1z"/>
		<path class="st0" d="M337.5,213.2h0.4c0.3,0,0.6,0,0.9-0.1c0.3,0,0.6-0.1,0.9-0.3c0.3-0.1,0.5-0.4,0.7-0.6
			c0.2-0.3,0.3-0.6,0.3-1.1c0-0.6-0.2-1.1-0.6-1.5s-0.9-0.5-1.5-0.5c-0.5,0-1,0.1-1.3,0.3s-0.7,0.6-0.9,1l-1.4-0.5
			c0.3-0.7,0.8-1.2,1.4-1.5c0.6-0.3,1.3-0.5,2.1-0.5c0.5,0,0.9,0.1,1.4,0.2s0.8,0.3,1.1,0.6c0.3,0.3,0.6,0.6,0.8,1
			c0.2,0.4,0.3,0.8,0.3,1.4c0,0.6-0.2,1.2-0.6,1.7c-0.4,0.5-0.9,0.9-1.5,1v0c0.4,0.1,0.7,0.2,1,0.4c0.3,0.2,0.6,0.4,0.8,0.7
			c0.2,0.3,0.4,0.6,0.5,0.9c0.1,0.3,0.2,0.7,0.2,1.1c0,0.6-0.1,1.1-0.3,1.5c-0.2,0.4-0.5,0.8-0.9,1.1c-0.4,0.3-0.8,0.5-1.3,0.7
			c-0.5,0.1-1,0.2-1.5,0.2c-0.9,0-1.7-0.2-2.4-0.6c-0.7-0.4-1.2-1-1.5-1.9l1.4-0.5c0.2,0.6,0.5,1.1,0.9,1.4c0.4,0.3,0.9,0.4,1.6,0.4
			c0.3,0,0.7-0.1,1-0.2c0.3-0.1,0.6-0.3,0.8-0.5c0.2-0.2,0.4-0.5,0.5-0.7c0.1-0.3,0.2-0.6,0.2-1c0-0.4-0.1-0.8-0.3-1.1
			c-0.2-0.3-0.4-0.5-0.7-0.7c-0.3-0.2-0.6-0.3-1-0.4c-0.4-0.1-0.7-0.1-1.1-0.1h-0.4V213.2z"/>
		<path class="st0" d="M357.3,209.5l-4.8,10.7h-1.6l4.9-10.7h-5.8v-1.3h7.3V209.5z"/>
		<path class="st0" d="M359.6,214.1c0-0.7,0.1-1.4,0.2-2.1c0.1-0.7,0.3-1.4,0.6-2c0.3-0.6,0.7-1.1,1.2-1.5c0.5-0.4,1.2-0.6,2-0.6
			s1.5,0.2,2,0.6c0.5,0.4,0.9,0.9,1.2,1.5c0.3,0.6,0.5,1.3,0.6,2c0.1,0.7,0.2,1.4,0.2,2.1c0,0.7-0.1,1.4-0.2,2.1
			c-0.1,0.7-0.3,1.4-0.6,2c-0.3,0.6-0.7,1.1-1.2,1.5c-0.5,0.4-1.2,0.6-2,0.6s-1.5-0.2-2-0.6c-0.5-0.4-0.9-0.9-1.2-1.5
			c-0.3-0.6-0.5-1.3-0.6-2C359.7,215.5,359.6,214.8,359.6,214.1z M361,214.1c0,0.3,0,0.6,0,1c0,0.4,0.1,0.7,0.1,1.1s0.2,0.7,0.3,1.1
			c0.1,0.4,0.3,0.7,0.5,0.9c0.2,0.3,0.4,0.5,0.7,0.7s0.6,0.2,1,0.2c0.4,0,0.7-0.1,1-0.2s0.5-0.4,0.7-0.7c0.2-0.3,0.4-0.6,0.5-0.9
			c0.1-0.4,0.2-0.7,0.3-1.1c0.1-0.4,0.1-0.7,0.1-1.1c0-0.4,0-0.7,0-1c0-0.3,0-0.6,0-1s-0.1-0.7-0.1-1.1c-0.1-0.4-0.2-0.7-0.3-1.1
			s-0.3-0.7-0.5-0.9c-0.2-0.3-0.4-0.5-0.7-0.7s-0.6-0.2-1-0.2c-0.4,0-0.7,0.1-1,0.2s-0.5,0.4-0.7,0.7c-0.2,0.3-0.4,0.6-0.5,0.9
			s-0.2,0.7-0.3,1.1s-0.1,0.7-0.1,1.1C361,213.5,361,213.9,361,214.1z"/>
		<path class="st0" d="M376.9,209.5H372l-0.1,3.2c0.2-0.1,0.5-0.2,0.8-0.2c0.3,0,0.5-0.1,0.8-0.1c0.6,0,1.1,0.1,1.6,0.3
			c0.5,0.2,0.9,0.5,1.2,0.8c0.3,0.4,0.6,0.8,0.8,1.3s0.3,1,0.3,1.6c0,0.6-0.1,1.1-0.3,1.6c-0.2,0.5-0.5,0.9-0.9,1.3
			c-0.4,0.3-0.8,0.6-1.3,0.8c-0.5,0.2-1.1,0.3-1.6,0.3c-0.9,0-1.7-0.2-2.2-0.6c-0.6-0.4-1-0.9-1.3-1.6l1.4-0.5
			c0.2,0.5,0.5,0.8,0.9,1.1c0.4,0.3,0.8,0.4,1.4,0.4c0.4,0,0.7-0.1,1-0.2c0.3-0.1,0.6-0.3,0.8-0.6c0.2-0.2,0.4-0.5,0.6-0.9
			c0.1-0.3,0.2-0.7,0.2-1.1c0-0.4-0.1-0.8-0.2-1.2c-0.2-0.3-0.4-0.6-0.6-0.9s-0.6-0.4-0.9-0.5s-0.8-0.2-1.2-0.2
			c-0.4,0-0.8,0.1-1.3,0.2s-0.8,0.3-1.2,0.5l0.1-6.3h6.3V209.5z"/>
		<path class="st0" d="M391.9,209.5H387l-0.1,3.2c0.2-0.1,0.5-0.2,0.8-0.2c0.3,0,0.5-0.1,0.8-0.1c0.6,0,1.1,0.1,1.6,0.3
			c0.5,0.2,0.9,0.5,1.2,0.8c0.3,0.4,0.6,0.8,0.8,1.3s0.3,1,0.3,1.6c0,0.6-0.1,1.1-0.3,1.6c-0.2,0.5-0.5,0.9-0.9,1.3
			c-0.4,0.3-0.8,0.6-1.3,0.8c-0.5,0.2-1.1,0.3-1.6,0.3c-0.9,0-1.7-0.2-2.2-0.6c-0.6-0.4-1-0.9-1.3-1.6l1.4-0.5
			c0.2,0.5,0.5,0.8,0.9,1.1c0.4,0.3,0.8,0.4,1.4,0.4c0.4,0,0.7-0.1,1-0.2c0.3-0.1,0.6-0.3,0.8-0.6c0.2-0.2,0.4-0.5,0.6-0.9
			c0.1-0.3,0.2-0.7,0.2-1.1c0-0.4-0.1-0.8-0.2-1.2c-0.2-0.3-0.4-0.6-0.6-0.9s-0.6-0.4-0.9-0.5s-0.8-0.2-1.2-0.2
			c-0.4,0-0.8,0.1-1.3,0.2s-0.8,0.3-1.2,0.5l0.1-6.3h6.3V209.5z"/>
		<path class="st0" d="M395,211.1c0-0.5,0.1-0.9,0.3-1.3c0.2-0.4,0.4-0.7,0.7-1c0.3-0.3,0.7-0.5,1.1-0.6c0.4-0.2,0.9-0.2,1.4-0.2
			s0.9,0.1,1.4,0.2c0.4,0.2,0.8,0.4,1.1,0.6c0.3,0.3,0.5,0.6,0.7,1c0.2,0.4,0.3,0.8,0.3,1.3c0,0.3,0,0.6-0.1,0.8
			c-0.1,0.3-0.2,0.5-0.4,0.8s-0.4,0.4-0.6,0.6c-0.2,0.2-0.5,0.3-0.8,0.4v0c0.4,0.1,0.7,0.2,1,0.4c0.3,0.2,0.5,0.4,0.7,0.7
			c0.2,0.3,0.4,0.6,0.5,0.9c0.1,0.3,0.2,0.7,0.2,1.1c0,0.5-0.1,1-0.3,1.5c-0.2,0.4-0.5,0.8-0.8,1.1c-0.3,0.3-0.8,0.5-1.2,0.7
			c-0.5,0.2-1,0.2-1.5,0.2c-0.5,0-1-0.1-1.5-0.2c-0.5-0.2-0.9-0.4-1.2-0.7c-0.3-0.3-0.6-0.7-0.8-1.1c-0.2-0.4-0.3-0.9-0.3-1.5
			c0-0.4,0.1-0.7,0.2-1.1s0.3-0.7,0.5-0.9c0.2-0.3,0.5-0.5,0.7-0.7c0.3-0.2,0.6-0.3,1-0.4v0c-0.3-0.1-0.6-0.2-0.8-0.4
			c-0.2-0.2-0.5-0.4-0.6-0.6s-0.3-0.5-0.4-0.8S395,211.4,395,211.1z M396,216.7c0,0.4,0.1,0.7,0.2,1c0.1,0.3,0.3,0.5,0.5,0.8
			s0.5,0.4,0.8,0.5s0.6,0.2,0.9,0.2c0.3,0,0.7-0.1,0.9-0.2s0.5-0.3,0.8-0.5s0.4-0.5,0.5-0.8c0.1-0.3,0.2-0.6,0.2-1s-0.1-0.7-0.2-1
			c-0.1-0.3-0.3-0.5-0.5-0.8s-0.5-0.4-0.8-0.5s-0.6-0.2-0.9-0.2c-0.3,0-0.7,0.1-0.9,0.2s-0.5,0.3-0.8,0.5s-0.4,0.5-0.5,0.8
			S396,216.4,396,216.7z M396.4,211.1c0,0.6,0.2,1.1,0.6,1.4s0.9,0.6,1.5,0.6s1.1-0.2,1.5-0.6s0.6-0.9,0.6-1.4s-0.2-1.1-0.6-1.4
			s-0.9-0.6-1.5-0.6s-1.1,0.2-1.5,0.6S396.4,210.6,396.4,211.1z"/>
		<path class="st0" d="M404.2,214.1c0-0.7,0.1-1.4,0.2-2.1c0.1-0.7,0.3-1.4,0.6-2c0.3-0.6,0.7-1.1,1.2-1.5c0.5-0.4,1.2-0.6,2-0.6
			s1.5,0.2,2,0.6c0.5,0.4,0.9,0.9,1.2,1.5c0.3,0.6,0.5,1.3,0.6,2c0.1,0.7,0.2,1.4,0.2,2.1c0,0.7-0.1,1.4-0.2,2.1
			c-0.1,0.7-0.3,1.4-0.6,2c-0.3,0.6-0.7,1.1-1.2,1.5c-0.5,0.4-1.2,0.6-2,0.6s-1.5-0.2-2-0.6c-0.5-0.4-0.9-0.9-1.2-1.5
			c-0.3-0.6-0.5-1.3-0.6-2C404.3,215.5,404.2,214.8,404.2,214.1z M405.6,214.1c0,0.3,0,0.6,0,1c0,0.4,0.1,0.7,0.1,1.1
			s0.2,0.7,0.3,1.1c0.1,0.4,0.3,0.7,0.5,0.9c0.2,0.3,0.4,0.5,0.7,0.7s0.6,0.2,1,0.2c0.4,0,0.7-0.1,1-0.2s0.5-0.4,0.7-0.7
			c0.2-0.3,0.4-0.6,0.5-0.9c0.1-0.4,0.2-0.7,0.3-1.1c0.1-0.4,0.1-0.7,0.1-1.1c0-0.4,0-0.7,0-1c0-0.3,0-0.6,0-1s-0.1-0.7-0.1-1.1
			c-0.1-0.4-0.2-0.7-0.3-1.1s-0.3-0.7-0.5-0.9c-0.2-0.3-0.4-0.5-0.7-0.7s-0.6-0.2-1-0.2c-0.4,0-0.7,0.1-1,0.2s-0.5,0.4-0.7,0.7
			c-0.2,0.3-0.4,0.6-0.5,0.9s-0.2,0.7-0.3,1.1s-0.1,0.7-0.1,1.1C405.6,213.5,405.6,213.9,405.6,214.1z"/>
		<path class="st0" d="M414.1,214.1c0-0.7,0.1-1.4,0.2-2.1c0.1-0.7,0.3-1.4,0.6-2c0.3-0.6,0.7-1.1,1.2-1.5c0.5-0.4,1.2-0.6,2-0.6
			s1.5,0.2,2,0.6c0.5,0.4,0.9,0.9,1.2,1.5c0.3,0.6,0.5,1.3,0.6,2c0.1,0.7,0.2,1.4,0.2,2.1c0,0.7-0.1,1.4-0.2,2.1
			c-0.1,0.7-0.3,1.4-0.6,2c-0.3,0.6-0.7,1.1-1.2,1.5c-0.5,0.4-1.2,0.6-2,0.6s-1.5-0.2-2-0.6c-0.5-0.4-0.9-0.9-1.2-1.5
			c-0.3-0.6-0.5-1.3-0.6-2C414.1,215.5,414.1,214.8,414.1,214.1z M415.5,214.1c0,0.3,0,0.6,0,1c0,0.4,0.1,0.7,0.1,1.1
			s0.2,0.7,0.3,1.1c0.1,0.4,0.3,0.7,0.5,0.9c0.2,0.3,0.4,0.5,0.7,0.7s0.6,0.2,1,0.2c0.4,0,0.7-0.1,1-0.2s0.5-0.4,0.7-0.7
			c0.2-0.3,0.4-0.6,0.5-0.9c0.1-0.4,0.2-0.7,0.3-1.1c0.1-0.4,0.1-0.7,0.1-1.1c0-0.4,0-0.7,0-1c0-0.3,0-0.6,0-1s-0.1-0.7-0.1-1.1
			c-0.1-0.4-0.2-0.7-0.3-1.1s-0.3-0.7-0.5-0.9c-0.2-0.3-0.4-0.5-0.7-0.7s-0.6-0.2-1-0.2c-0.4,0-0.7,0.1-1,0.2s-0.5,0.4-0.7,0.7
			c-0.2,0.3-0.4,0.6-0.5,0.9s-0.2,0.7-0.3,1.1s-0.1,0.7-0.1,1.1C415.5,213.5,415.5,213.9,415.5,214.1z"/>
	</g>
</g>
</svg>
